<?xml version="1.0" encoding="UTF-8"?>
<!DOCTYPE svg PUBLIC "-//W3C//DTD SVG 1.1//EN" "http://www.w3.org/Graphics/SVG/1.1/DTD/svg11.dtd">
<svg xmlns="http://www.w3.org/2000/svg" version="1.1" width="72px" height="80px" style="shape-rendering:geometricPrecision; text-rendering:geometricPrecision; image-rendering:optimizeQuality; fill-rule:evenodd; clip-rule:evenodd" xmlns:xlink="http://www.w3.org/1999/xlink">
<g><path style="opacity:0.915" fill="#090705" d="M 11.5,-0.5 C 13.5,-0.5 15.5,-0.5 17.5,-0.5C 18.3007,1.04181 18.634,2.70848 18.5,4.5C 29.8333,4.5 41.1667,4.5 52.5,4.5C 52.366,2.70848 52.6993,1.04181 53.5,-0.5C 55.5,-0.5 57.5,-0.5 59.5,-0.5C 60.9418,0.819534 61.6085,2.4862 61.5,4.5C 65.4749,3.85775 68.8082,4.85775 71.5,7.5C 71.5,30.8333 71.5,54.1667 71.5,77.5C 70.5,77.8333 69.8333,78.5 69.5,79.5C 46.8333,79.5 24.1667,79.5 1.5,79.5C 1.16667,78.5 0.5,77.8333 -0.5,77.5C -0.5,73.1667 -0.5,68.8333 -0.5,64.5C -0.166667,64.5 0.166667,64.5 0.5,64.5C 0.945115,67.245 1.94511,69.745 3.5,72C 19.8333,72.6667 36.1667,72.6667 52.5,72C 53.0949,67.4706 53.9283,62.9706 55,58.5C 59.08,57.6998 63.2467,57.1998 67.5,57C 68.056,56.6174 68.3893,56.1174 68.5,55.5C 69.4944,45.0131 69.8278,34.3464 69.5,23.5C 66.9407,23.8016 64.6074,23.4682 62.5,22.5C 64.6074,21.5318 66.9407,21.1984 69.5,21.5C 69.6657,17.1539 69.499,12.8206 69,8.5C 68.3292,7.74756 67.4959,7.41423 66.5,7.5C 62.7016,6.51658 58.7016,6.18325 54.5,6.5C 54.2155,8.41467 54.5489,10.0813 55.5,11.5C 55.9175,12.2216 56.5842,12.7216 57.5,13C 55.6476,13.7726 54.3143,13.2726 53.5,11.5C 53.5,9.83333 53.5,8.16667 53.5,6.5C 39.6565,6.17096 25.9898,6.50429 12.5,7.5C 12.178,9.72241 12.8446,11.5557 14.5,13C 12.892,13.658 11.7253,13.158 11,11.5C 10.5065,9.86586 10.3398,8.19919 10.5,6.5C 7.39787,6.15402 4.56453,6.82069 2,8.5C 1.50098,12.8206 1.33432,17.1539 1.5,21.5C 20.9094,21.1797 40.2428,21.513 59.5,22.5C 59.5,23.1667 59.1667,23.5 58.5,23.5C 39.5,23.5 20.5,23.5 1.5,23.5C 1.5,36.5 1.5,49.5 1.5,62.5C 0.833333,62.5 0.5,62.8333 0.5,63.5C 0.166667,63.5 -0.166667,63.5 -0.5,63.5C -0.5,44.8333 -0.5,26.1667 -0.5,7.5C 2.19179,4.85775 5.52512,3.85775 9.5,4.5C 9.39151,2.4862 10.0582,0.819534 11.5,-0.5 Z M 13.5,2.5 C 15.337,2.63945 15.6704,3.30612 14.5,4.5C 13.7025,4.04311 13.3691,3.37644 13.5,2.5 Z M 55.5,2.5 C 57.337,2.63945 57.6704,3.30612 56.5,4.5C 55.7025,4.04311 55.3691,3.37644 55.5,2.5 Z"/></g>
<g><path style="opacity:1" fill="#8e6f43" d="M 12.5,7.5 C 25.9898,6.50429 39.6565,6.17096 53.5,6.5C 53.5,8.16667 53.5,9.83333 53.5,11.5C 52.5655,10.4324 52.2322,9.09903 52.5,7.5C 39.1667,7.5 25.8333,7.5 12.5,7.5 Z"/></g>
<g><path style="opacity:1" fill="#856b43" d="M 66.5,7.5 C 62.8333,7.5 59.1667,7.5 55.5,7.5C 55.5,8.83333 55.5,10.1667 55.5,11.5C 54.5489,10.0813 54.2155,8.41467 54.5,6.5C 58.7016,6.18325 62.7016,6.51658 66.5,7.5 Z"/></g>
<g><path style="opacity:1" fill="#f9c980" d="M 12.5,7.5 C 25.8333,7.5 39.1667,7.5 52.5,7.5C 52.2322,9.09903 52.5655,10.4324 53.5,11.5C 54.3143,13.2726 55.6476,13.7726 57.5,13C 56.5842,12.7216 55.9175,12.2216 55.5,11.5C 55.5,10.1667 55.5,8.83333 55.5,7.5C 59.1667,7.5 62.8333,7.5 66.5,7.5C 67.4959,7.41423 68.3292,7.74756 69,8.5C 69.499,12.8206 69.6657,17.1539 69.5,21.5C 66.9407,21.1984 64.6074,21.5318 62.5,22.5C 62.1667,22.5 61.8333,22.5 61.5,22.5C 60.8333,22.5 60.1667,22.5 59.5,22.5C 40.2428,21.513 20.9094,21.1797 1.5,21.5C 1.33432,17.1539 1.50098,12.8206 2,8.5C 4.56453,6.82069 7.39787,6.15402 10.5,6.5C 10.3398,8.19919 10.5065,9.86586 11,11.5C 11.7253,13.158 12.892,13.658 14.5,13C 12.8446,11.5557 12.178,9.72241 12.5,7.5 Z"/></g>
<g><path style="opacity:1" fill="#b8b3b2" d="M 58.5,23.5 C 40.0075,24.4969 21.3408,24.8302 2.5,24.5C 2.82868,37.3443 2.49535,50.011 1.5,62.5C 1.5,49.5 1.5,36.5 1.5,23.5C 20.5,23.5 39.5,23.5 58.5,23.5 Z"/></g>
<g><path style="opacity:1" fill="#f7f1ef" d="M 59.5,22.5 C 60.1667,22.5 60.8333,22.5 61.5,22.5C 63.2789,24.3435 65.6122,25.0102 68.5,24.5C 68.5,34.8333 68.5,45.1667 68.5,55.5C 68.3893,56.1174 68.056,56.6174 67.5,57C 63.2467,57.1998 59.08,57.6998 55,58.5C 53.9283,62.9706 53.0949,67.4706 52.5,72C 36.1667,72.6667 19.8333,72.6667 3.5,72C 1.94511,69.745 0.945115,67.245 0.5,64.5C 0.5,64.1667 0.5,63.8333 0.5,63.5C 0.5,62.8333 0.833333,62.5 1.5,62.5C 2.49535,50.011 2.82868,37.3443 2.5,24.5C 21.3408,24.8302 40.0075,24.4969 58.5,23.5C 59.1667,23.5 59.5,23.1667 59.5,22.5 Z"/></g>
<g><path style="opacity:1" fill="#b9b4b3" d="M 61.5,22.5 C 61.8333,22.5 62.1667,22.5 62.5,22.5C 64.6074,23.4682 66.9407,23.8016 69.5,23.5C 69.8278,34.3464 69.4944,45.0131 68.5,55.5C 68.5,45.1667 68.5,34.8333 68.5,24.5C 65.6122,25.0102 63.2789,24.3435 61.5,22.5 Z"/></g>
<g><path style="opacity:1" fill="#212120" d="M 32.5,35.5 C 34.5,35.5 36.5,35.5 38.5,35.5C 38.831,43.5277 38.4977,51.5277 37.5,59.5C 36.5027,52.1968 36.1694,44.8635 36.5,37.5C 34.5168,37.8432 33.1834,37.1765 32.5,35.5 Z"/></g>
<g><path style="opacity:1" fill="#6c6563" d="M 57.5,59.5 C 60.6868,58.1944 64.0202,58.1944 67.5,59.5C 67.3764,60.1067 67.0431,60.44 66.5,60.5C 63.7131,59.5233 60.7131,59.19 57.5,59.5 Z"/></g>
<g><path style="opacity:1" fill="#d7cbc7" d="M 57.5,59.5 C 60.7131,59.19 63.7131,59.5233 66.5,60.5C 63.5211,64.1456 60.1877,67.479 56.5,70.5C 55.343,67.2156 55.1764,63.8823 56,60.5C 56.3826,59.944 56.8826,59.6107 57.5,59.5 Z"/></g>
<g><path style="opacity:1" fill="#bbaea9" d="M 67.5,61.5 C 68.8048,63.3972 69.4714,65.7305 69.5,68.5C 69.3333,70.8333 69.1667,73.1667 69,75.5C 68.5,76 68,76.5 67.5,77C 46.1667,77.6667 24.8333,77.6667 3.5,77C 2.64332,76.3109 1.97665,75.4776 1.5,74.5C 19.3241,74.6326 37.3241,74.4659 55.5,74C 59.7036,69.9644 63.7036,65.7978 67.5,61.5 Z"/></g>
</svg>
