<?xml version="1.0" encoding="UTF-8"?>
<!DOCTYPE svg PUBLIC "-//W3C//DTD SVG 1.1//EN" "http://www.w3.org/Graphics/SVG/1.1/DTD/svg11.dtd">
<svg xmlns="http://www.w3.org/2000/svg" version="1.1" width="80px" height="80px" style="shape-rendering:geometricPrecision; text-rendering:geometricPrecision; image-rendering:optimizeQuality; fill-rule:evenodd; clip-rule:evenodd" xmlns:xlink="http://www.w3.org/1999/xlink">
<g><path style="opacity:0.788" fill="#0b0a08" d="M 17.5,-0.5 C 22.5,-0.5 27.5,-0.5 32.5,-0.5C 44.9497,4.98842 50.9497,14.6551 50.5,28.5C 64.3449,28.0503 74.0116,34.0503 79.5,46.5C 79.5,51.5 79.5,56.5 79.5,61.5C 77.963,64.9 76.1297,68.2333 74,71.5C 72.7365,73.607 70.9032,74.607 68.5,74.5C 69.0476,72.6064 70.0476,70.9397 71.5,69.5C 66.085,68.7115 62.085,70.8782 59.5,76C 61.6792,75.716 63.6792,75.8826 65.5,76.5C 64.4097,77.8571 63.0764,78.8571 61.5,79.5C 56.8333,79.5 52.1667,79.5 47.5,79.5C 34.4394,74.4084 28.1061,64.7417 28.5,50.5C 14.6551,50.9497 4.98842,44.9497 -0.5,32.5C -0.5,27.5 -0.5,22.5 -0.5,17.5C 2.5,8.5 8.5,2.5 17.5,-0.5 Z"/></g>
<g><path style="opacity:1" fill="#eeb44a" d="M 19.5,1.5 C 21.288,1.21478 22.9547,1.54811 24.5,2.5C 28.8012,8.78312 34.8012,11.2831 42.5,10C 46.221,14.1621 47.721,18.9954 47,24.5C 45.0448,25.4533 43.3782,26.7866 42,28.5C 37.9694,34.366 34.136,40.366 30.5,46.5C 29.6667,46.8333 28.8333,47.1667 28,47.5C 24.499,44.6985 20.6656,42.1985 16.5,40C 13.4284,39.5441 10.4284,39.5441 7.5,40C 4.56743,36.3009 2.56743,32.1342 1.5,27.5C 4.4807,24.6645 6.9807,21.3311 9,17.5C 10.6615,13.8916 10.9948,10.2249 10,6.5C 13.1806,4.66182 16.3473,2.99516 19.5,1.5 Z"/></g>
<g><path style="opacity:1" fill="#c8d3db" d="M 26.5,1.5 C 31.4956,2.16584 35.8289,4.16584 39.5,7.5C 33.5227,8.95597 29.1894,6.95597 26.5,1.5 Z"/></g>
<g><path style="opacity:1" fill="#ced6db" d="M 6.5,9.5 C 9.33026,14.7077 7.99693,19.041 2.5,22.5C 2.16667,22 1.83333,21.5 1.5,21C 2.78352,16.9395 4.45019,13.1062 6.5,9.5 Z"/></g>
<g><path style="opacity:1" fill="#f6f6f6" d="M 11.5,21.5 C 11.7329,19.9382 12.3995,18.6049 13.5,17.5C 21.7697,10.3061 29.2697,10.9728 36,19.5C 37.8333,32.3333 32.3333,37.8333 19.5,36C 14.3244,32.4771 11.6577,27.6437 11.5,21.5 Z"/></g>
<g><path style="opacity:1" fill="#1a1a1a" d="M 21.5,17.5 C 22.4959,17.4142 23.3292,17.7476 24,18.5C 25.2221,22.6096 26.7221,26.6096 28.5,30.5C 28.1667,30.8333 27.8333,31.1667 27.5,31.5C 25.7305,28.2939 24.2305,24.9606 23,21.5C 21.7949,20.9288 20.6283,20.2621 19.5,19.5C 20.2427,18.8182 20.9094,18.1515 21.5,17.5 Z"/></g>
<g><path style="opacity:1" fill="#c2cacf" d="M 46.5,26.5 C 47.782,27.7082 47.782,29.0416 46.5,30.5C 45.2519,31.0402 44.0852,31.7069 43,32.5C 42.3333,31.8333 42.3333,31.1667 43,30.5C 44.3756,29.2949 45.5423,27.9616 46.5,26.5 Z"/></g>
<g><path style="opacity:1" fill="#a5d594" d="M 69.5,46.5 C 72.5011,53.8265 71.8344,60.8265 67.5,67.5C 62.9373,69.0593 59.6039,72.0593 57.5,76.5C 52.6762,77.8143 48.0095,77.3143 43.5,75C 43.3203,66.8167 39.487,60.9833 32,57.5C 30.8671,52.1475 31.7004,47.1475 34.5,42.5C 42.7629,43.0421 48.4296,39.5421 51.5,32C 56.4033,31.0631 61.0699,31.7298 65.5,34C 66.4489,38.2978 67.7823,42.4644 69.5,46.5 Z"/></g>
<g><path style="opacity:1" fill="#d0d8dd" d="M 45.5,32.5 C 48.9708,32.8994 49.3042,34.3994 46.5,37C 43.5091,39.6155 40.1758,40.4488 36.5,39.5C 39.257,36.7297 42.257,34.3963 45.5,32.5 Z"/></g>
<g><path style="opacity:1" fill="#1c1916" d="M 11.5,21.5 C 11.6577,27.6437 14.3244,32.4771 19.5,36C 32.3333,37.8333 37.8333,32.3333 36,19.5C 29.2697,10.9728 21.7697,10.3061 13.5,17.5C 16.4288,11.8716 21.0955,9.7049 27.5,11C 37.3069,14.1127 40.6402,20.6127 37.5,30.5C 33.5435,37.6391 27.5435,40.1391 19.5,38C 12.589,34.3501 9.92232,28.8501 11.5,21.5 Z"/></g>
<g><path style="opacity:1" fill="#bfccd5" d="M 68.5,36.5 C 73.0874,39.68 75.5874,44.0134 76,49.5C 70.9194,46.6739 68.4194,42.3405 68.5,36.5 Z"/></g>
<g><path style="opacity:1" fill="#d1d9df" d="M 9.5,42.5 C 15.0057,40.7238 19.6724,42.2238 23.5,47C 18.2299,47.4101 13.5632,45.9101 9.5,42.5 Z"/></g>
<g><path style="opacity:1" fill="#8ac596" d="M 69.5,46.5 C 73.0075,48.7084 75.6742,51.5417 77.5,55C 77.1838,59.0994 76.0172,62.9327 74,66.5C 71.9592,67.4231 69.7925,67.7564 67.5,67.5C 71.8344,60.8265 72.5011,53.8265 69.5,46.5 Z"/></g>
<g><path style="opacity:1" fill="#c9d1d6" d="M 31.5,60.5 C 31.56,59.9569 31.8933,59.6236 32.5,59.5C 37.7833,62.2716 40.2833,66.605 40,72.5C 36.3957,68.9253 33.5624,64.9253 31.5,60.5 Z"/></g>
<g><path style="opacity:1" fill="#131512" d="M 49.5,40.5 C 57.914,39.0202 64.0806,42.0202 68,49.5C 69.1667,63 63,69.1667 49.5,68C 40.2995,62.6203 38.1328,55.1203 43,45.5C 44.9651,43.4497 47.1318,41.783 49.5,40.5 Z"/></g>
<g><path style="opacity:1" fill="#f0f0f0" d="M 49.5,42.5 C 61.8227,40.9906 67.3227,46.324 66,58.5C 62.5896,65.4534 57.0896,67.9534 49.5,66C 38.9142,58.1732 38.9142,50.3399 49.5,42.5 Z"/></g>
<g><path style="opacity:1" fill="#181818" d="M 52.5,47.5 C 55.0728,47.1485 57.4062,47.6485 59.5,49C 57.5273,49.4955 55.5273,49.6621 53.5,49.5C 53.5,50.5 53.5,51.5 53.5,52.5C 59.2445,53.9792 59.9112,56.8125 55.5,61C 51.9939,61.8436 49.6605,60.5102 48.5,57C 48.8333,56.5 49.1667,56 49.5,55.5C 50.4494,59.2731 52.6161,60.2731 56,58.5C 56.2991,54.7971 54.4658,52.9638 50.5,53C 51.8613,51.4157 52.528,49.5824 52.5,47.5 Z"/></g>
<g><path style="opacity:0.972" fill="#c2ced8" d="M 68.5,74.5 C 67.5,75.1667 66.5,75.8333 65.5,76.5C 63.6792,75.8826 61.6792,75.716 59.5,76C 62.085,70.8782 66.085,68.7115 71.5,69.5C 70.0476,70.9397 69.0476,72.6064 68.5,74.5 Z"/></g>
</svg>
