<?xml version="1.0" encoding="UTF-8"?>
<!DOCTYPE svg PUBLIC "-//W3C//DTD SVG 1.1//EN" "http://www.w3.org/Graphics/SVG/1.1/DTD/svg11.dtd">
<svg xmlns="http://www.w3.org/2000/svg" version="1.1" width="395px" height="164px" style="shape-rendering:geometricPrecision; text-rendering:geometricPrecision; image-rendering:optimizeQuality; fill-rule:evenodd; clip-rule:evenodd" xmlns:xlink="http://www.w3.org/1999/xlink">
<g><path style="opacity:0.365" fill="#b0b0b0" d="M 261.5,-0.5 C 261.833,-0.5 262.167,-0.5 262.5,-0.5C 262.833,0.833333 263.167,0.833333 263.5,-0.5C 263.833,-0.5 264.167,-0.5 264.5,-0.5C 264.833,0.833333 265.167,0.833333 265.5,-0.5C 265.833,-0.5 266.167,-0.5 266.5,-0.5C 266.833,0.833333 267.167,0.833333 267.5,-0.5C 267.833,-0.5 268.167,-0.5 268.5,-0.5C 271.962,0.481638 275.629,0.814971 279.5,0.5C 273.5,1.83333 267.5,1.83333 261.5,0.5C 261.5,0.166667 261.5,-0.166667 261.5,-0.5 Z"/></g>
<g><path style="opacity:0.847" fill="#9a9a9a" d="M 237.5,0.5 C 236.432,1.43448 235.099,1.76781 233.5,1.5C 222.08,2.96353 210.746,3.29687 199.5,2.5C 202.607,2.28529 205.441,2.28529 208,2.5C 210.667,1.83333 213.333,1.16667 216,0.5C 222.661,0.511247 229.828,0.511247 237.5,0.5 Z"/></g>
<g><path style="opacity:1" fill="#6c6c6c" d="M 244.5,-0.5 C 244.833,-0.5 245.167,-0.5 245.5,-0.5C 248.167,0.833333 250.833,0.833333 253.5,-0.5C 253.833,-0.5 254.167,-0.5 254.5,-0.5C 254.833,0.833333 255.167,0.833333 255.5,-0.5C 255.833,-0.5 256.167,-0.5 256.5,-0.5C 257.5,0.833333 258.5,0.833333 259.5,-0.5C 259.833,-0.5 260.167,-0.5 260.5,-0.5C 260.5,0.166667 260.833,0.5 261.5,0.5C 267.5,1.83333 273.5,1.83333 279.5,0.5C 280.167,0.5 280.5,0.833333 280.5,1.5C 264.833,2.83333 249.167,2.83333 233.5,1.5C 235.099,1.76781 236.432,1.43448 237.5,0.5C 240.059,0.801552 242.393,0.468218 244.5,-0.5 Z"/></g>
<g><path style="opacity:0.886" fill="#848484" d="M 292.5,1.5 C 292.5,1.83333 292.5,2.16667 292.5,2.5C 288.629,2.81497 284.962,2.48164 281.5,1.5C 284.867,0.856481 288.534,0.856481 292.5,1.5 Z"/></g>
<g><path style="opacity:0.91" fill="#bfbfbf" d="M 319.5,3.5 C 319.083,4.12395 318.416,4.45728 317.5,4.5C 309.21,3.33694 300.876,2.67027 292.5,2.5C 292.5,2.16667 292.5,1.83333 292.5,1.5C 294.553,1.24551 296.72,0.912176 299,0.5C 305.752,1.34278 312.586,2.34278 319.5,3.5 Z"/></g>
<g><path style="opacity:1" fill="#282828" d="M 233.5,1.5 C 249.167,2.83333 264.833,2.83333 280.5,1.5C 280.833,1.5 281.167,1.5 281.5,1.5C 284.962,2.48164 288.629,2.81497 292.5,2.5C 300.876,2.67027 309.21,3.33694 317.5,4.5C 318.416,4.45728 319.083,4.12395 319.5,3.5C 320.167,3.5 320.833,3.5 321.5,3.5C 341.03,6.92201 360.697,10.2553 380.5,13.5C 384.499,14.4997 388.499,15.4997 392.5,16.5C 393.338,16.8417 393.672,17.5084 393.5,18.5C 390.363,26.4622 386.863,34.4622 383,42.5C 381.523,46.4299 380.356,50.4299 379.5,54.5C 379.5,54.8333 379.5,55.1667 379.5,55.5C 375.792,62.644 373.459,70.3106 372.5,78.5C 372.5,78.8333 372.5,79.1667 372.5,79.5C 370.72,80.9899 370.054,82.9899 370.5,85.5C 370.5,85.8333 370.5,86.1667 370.5,86.5C 368.868,89.5575 367.701,92.8909 367,96.5C 365.272,106.445 363.939,116.445 363,126.5C 362.261,127.574 361.261,128.241 360,128.5C 357.566,127.678 355.066,127.344 352.5,127.5C 352.167,127.5 351.833,127.5 351.5,127.5C 350.571,126.685 349.571,125.852 348.5,125C 342.977,122.902 337.311,121.402 331.5,120.5C 328.848,120.59 326.515,119.924 324.5,118.5C 319.427,116.565 314.094,115.232 308.5,114.5C 292.878,111.841 277.212,109.507 261.5,107.5C 256.016,106.482 250.349,105.816 244.5,105.5C 237.804,105.609 231.137,105.276 224.5,104.5C 217.007,103.834 209.341,103.5 201.5,103.5C 188.636,103.384 175.969,104.05 163.5,105.5C 162.5,105.5 161.5,105.5 160.5,105.5C 155.586,105.362 150.919,106.028 146.5,107.5C 114.285,110.555 82.9518,117.389 52.5,128C 45.8487,130.007 40.682,128.173 37,122.5C 31.0486,108.526 25.0486,94.526 19,80.5C 18.5776,78.5743 17.4109,77.5743 15.5,77.5C 15.5,76.8333 15.5,76.1667 15.5,75.5C 15.7271,73.0672 14.7271,71.4006 12.5,70.5C 12.5,69.8333 12.5,69.1667 12.5,68.5C 12.539,65.911 11.539,63.911 9.5,62.5C 9.5,62.1667 9.5,61.8333 9.5,61.5C 9.74085,58.9664 8.74085,57.2998 6.5,56.5C 6.44312,55.391 6.10978,54.391 5.5,53.5C 7.48356,47.3709 11.8169,43.8709 18.5,43C 19.2524,42.3292 19.5858,41.4959 19.5,40.5C 20.1667,40.5 20.8333,40.5 21.5,40.5C 22.6009,41.5983 23.9343,41.765 25.5,41C 28.0691,40.1016 30.4024,38.935 32.5,37.5C 33.3382,37.1583 33.6716,36.4916 33.5,35.5C 33.8333,35.5 34.1667,35.5 34.5,35.5C 34.7352,36.0967 35.2352,36.4301 36,36.5C 45.3286,33.1257 54.8286,30.2924 64.5,28C 66.596,27.2635 68.2627,26.0968 69.5,24.5C 69.8333,24.5 70.1667,24.5 70.5,24.5C 71.9464,25.6129 73.6131,25.7796 75.5,25C 76.2524,24.3292 76.5858,23.4959 76.5,22.5C 76.8333,22.5 77.1667,22.5 77.5,22.5C 78.9464,23.6129 80.6131,23.7796 82.5,23C 83.2524,22.3292 83.5858,21.4959 83.5,20.5C 83.8333,20.5 84.1667,20.5 84.5,20.5C 87.8826,21.8891 90.8826,21.2224 93.5,18.5C 93.8333,18.5 94.1667,18.5 94.5,18.5C 97.533,19.7183 100.2,19.0516 102.5,16.5C 102.833,16.5 103.167,16.5 103.5,16.5C 103.56,17.0431 103.893,17.3764 104.5,17.5C 107.345,17.2343 109.678,16.2343 111.5,14.5C 111.833,14.5 112.167,14.5 112.5,14.5C 113.625,15.0141 114.791,15.3474 116,15.5C 116.464,14.9056 116.631,14.2389 116.5,13.5C 116.833,13.5 117.167,13.5 117.5,13.5C 119.628,14.6291 121.961,14.7958 124.5,14C 128.586,13.4058 132.252,12.2391 135.5,10.5C 135.833,10.5 136.167,10.5 136.5,10.5C 136.917,11.1239 137.584,11.4573 138.5,11.5C 142.156,11.1292 145.49,10.1292 148.5,8.5C 148.833,8.5 149.167,8.5 149.5,8.5C 149.917,9.12395 150.584,9.45728 151.5,9.5C 159.739,8.80227 167.739,7.46893 175.5,5.5C 175.833,5.5 176.167,5.5 176.5,5.5C 177.097,6.13863 177.93,6.47196 179,6.5C 183.144,5.8355 187.311,5.3355 191.5,5C 194.191,4.84421 196.524,4.01088 198.5,2.5C 198.833,2.5 199.167,2.5 199.5,2.5C 210.746,3.29687 222.08,2.96353 233.5,1.5 Z"/></g>
<g><path style="opacity:0.58" fill="#848484" d="M 198.5,2.5 C 196.524,4.01088 194.191,4.84421 191.5,5C 187.311,5.3355 183.144,5.8355 179,6.5C 177.93,6.47196 177.097,6.13863 176.5,5.5C 176.783,4.71087 177.283,4.0442 178,3.5C 179.667,3.83333 181.333,4.16667 183,4.5C 188.186,2.67271 193.352,2.00604 198.5,2.5 Z"/></g>
<g><path style="opacity:0.733" fill="#979797" d="M 321.5,3.5 C 340.966,4.7373 360.633,7.7373 380.5,12.5C 380.5,12.8333 380.5,13.1667 380.5,13.5C 360.697,10.2553 341.03,6.92201 321.5,3.5 Z"/></g>
<g><path style="opacity:1" fill="#838383" d="M 175.5,5.5 C 167.739,7.46893 159.739,8.80227 151.5,9.5C 150.584,9.45728 149.917,9.12395 149.5,8.5C 153.533,7.49485 157.366,6.49485 161,5.5C 165.668,5.83279 170.502,5.83279 175.5,5.5 Z"/></g>
<g><path style="opacity:0.337" fill="#828282" d="M 148.5,8.5 C 145.49,10.1292 142.156,11.1292 138.5,11.5C 137.584,11.4573 136.917,11.1239 136.5,10.5C 140.249,9.56075 144.083,8.56075 148,7.5C 148.399,7.72845 148.565,8.06178 148.5,8.5 Z"/></g>
<g><path style="opacity:1" fill="#9b9b9b" d="M 277.5,10.5 C 253.162,10.5581 228.829,10.8914 204.5,11.5C 219.81,10.0847 235.31,9.41801 251,9.5C 260.006,9.50022 268.84,9.83355 277.5,10.5 Z"/></g>
<g><path style="opacity:1" fill="#fcfcfc" d="M 277.5,10.5 C 283.5,10.5 289.5,10.5 295.5,10.5C 302.289,11.8754 309.289,12.5421 316.5,12.5C 328.145,13.8325 339.812,15.1658 351.5,16.5C 356.887,18.2926 362.553,19.2926 368.5,19.5C 373.326,20.207 377.992,21.5404 382.5,23.5C 374.475,41.2759 368.142,59.6092 363.5,78.5C 361.584,82.1629 360.584,86.1629 360.5,90.5C 359.245,95.7756 358.245,101.109 357.5,106.5C 356.023,110.233 355.189,114.233 355,118.5C 353.644,117.62 352.144,117.286 350.5,117.5C 346.952,116.87 343.619,115.87 340.5,114.5C 338.786,113.262 336.786,112.595 334.5,112.5C 326.873,110.677 319.206,109.01 311.5,107.5C 309.162,105.96 306.495,105.294 303.5,105.5C 301.139,105.326 298.806,104.993 296.5,104.5C 293.781,103.087 290.781,102.42 287.5,102.5C 281.48,100.331 275.147,99.331 268.5,99.5C 264.865,98.8857 261.198,98.5524 257.5,98.5C 253.119,98.6282 248.785,98.2949 244.5,97.5C 240.688,96.6762 236.688,96.1762 232.5,96C 218.171,95.5001 203.837,95.3334 189.5,95.5C 179.283,95.175 169.283,95.8416 159.5,97.5C 153.902,97.1557 148.568,97.8224 143.5,99.5C 137.474,99.9488 131.474,100.615 125.5,101.5C 122.505,101.294 119.838,101.96 117.5,103.5C 112.747,103.843 108.081,104.51 103.5,105.5C 100.505,105.294 97.8383,105.96 95.5,107.5C 79.2113,110.905 63.2113,115.238 47.5,120.5C 46.5581,120.392 45.7247,120.059 45,119.5C 42.1522,113.141 39.3189,106.807 36.5,100.5C 36.7709,98.6203 36.1042,97.287 34.5,96.5C 32.344,91.5215 30.344,86.5215 28.5,81.5C 26.823,77.6245 25.323,73.6245 24,69.5C 23.0513,67.9069 21.8846,66.5736 20.5,65.5C 18.7795,60.806 17.1128,56.1393 15.5,51.5C 43.0552,41.1866 71.3885,32.8532 100.5,26.5C 103.781,26.5797 106.781,25.913 109.5,24.5C 114.38,23.0314 119.38,22.0314 124.5,21.5C 130.845,21.7759 136.845,20.7759 142.5,18.5C 142.833,18.5 143.167,18.5 143.5,18.5C 150.755,18.3752 157.755,17.3752 164.5,15.5C 165.5,15.5 166.5,15.5 167.5,15.5C 172.391,15.4681 177.057,14.8015 181.5,13.5C 189.167,12.8333 196.833,12.1667 204.5,11.5C 228.829,10.8914 253.162,10.5581 277.5,10.5 Z"/></g>
<g><path style="opacity:1" fill="#6f6f6f" d="M 295.5,10.5 C 302.711,10.4579 309.711,11.1246 316.5,12.5C 309.289,12.5421 302.289,11.8754 295.5,10.5 Z"/></g>
<g><path style="opacity:0.925" fill="#848484" d="M 135.5,10.5 C 132.252,12.2391 128.586,13.4058 124.5,14C 121.961,14.7958 119.628,14.6291 117.5,13.5C 119.03,12.9332 120.53,12.2666 122,11.5C 122.333,11.8333 122.667,12.1667 123,12.5C 127.322,11.5813 131.322,10.5813 135,9.5C 135.399,9.72845 135.565,10.0618 135.5,10.5 Z"/></g>
<g><path style="opacity:1" fill="#a2a2a2" d="M 181.5,13.5 C 177.057,14.8015 172.391,15.4681 167.5,15.5C 171.9,13.8958 176.566,13.2291 181.5,13.5 Z"/></g>
<g><path style="opacity:0.277" fill="#c4c4c4" d="M 392.5,16.5 C 388.499,15.4997 384.499,14.4997 380.5,13.5C 380.5,13.1667 380.5,12.8333 380.5,12.5C 382.506,11.8336 384.34,11.8336 386,12.5C 388.815,12.8949 390.982,14.2282 392.5,16.5 Z"/></g>
<g><path style="opacity:0.953" fill="#9c9c9c" d="M 116.5,13.5 C 116.631,14.2389 116.464,14.9056 116,15.5C 114.791,15.3474 113.625,15.0141 112.5,14.5C 113.568,13.5655 114.901,13.2322 116.5,13.5 Z"/></g>
<g><path style="opacity:1" fill="#939393" d="M 111.5,14.5 C 109.678,16.2343 107.345,17.2343 104.5,17.5C 103.893,17.3764 103.56,17.0431 103.5,16.5C 106.154,15.0548 108.821,14.3881 111.5,14.5 Z"/></g>
<g><path style="opacity:1" fill="#a5a5a5" d="M 164.5,15.5 C 157.755,17.3752 150.755,18.3752 143.5,18.5C 150.239,16.6135 157.239,15.6135 164.5,15.5 Z"/></g>
<g><path style="opacity:1" fill="#7f7f7f" d="M 102.5,16.5 C 100.2,19.0516 97.533,19.7183 94.5,18.5C 96.9136,17.3218 99.5802,16.6551 102.5,16.5 Z"/></g>
<g><path style="opacity:1" fill="#858585" d="M 351.5,16.5 C 357.425,16.7758 363.092,17.7758 368.5,19.5C 362.553,19.2926 356.887,18.2926 351.5,16.5 Z"/></g>
<g><path style="opacity:1" fill="#9e9e9e" d="M 93.5,18.5 C 90.8826,21.2224 87.8826,21.8891 84.5,20.5C 86.4047,20.9283 88.238,20.2616 90,18.5C 91.1475,19.4581 92.1475,19.1247 93,17.5C 93.3988,17.7284 93.5654,18.0618 93.5,18.5 Z"/></g>
<g><path style="opacity:1" fill="#131313" d="M 298.5,22.5 C 296.246,23.1237 294.579,24.457 293.5,26.5C 291.765,28.2351 289.765,29.5684 287.5,30.5C 285.085,30.2811 284.085,28.9477 284.5,26.5C 284.833,26.5 285.167,26.5 285.5,26.5C 286.833,25.8333 287.833,24.8333 288.5,23.5C 289.906,23.0269 290.573,22.0269 290.5,20.5C 292.094,20.0805 293.594,19.4138 295,18.5C 297.375,18.8178 298.542,20.1511 298.5,22.5 Z"/></g>
<g><path style="opacity:1" fill="#bfbfbf" d="M 142.5,18.5 C 136.845,20.7759 130.845,21.7759 124.5,21.5C 130.28,19.9569 136.28,18.9569 142.5,18.5 Z"/></g>
<g><path style="opacity:1" fill="#7a7a7a" d="M 290.5,20.5 C 290.573,22.0269 289.906,23.0269 288.5,23.5C 288.427,21.9731 289.094,20.9731 290.5,20.5 Z"/></g>
<g><path style="opacity:1" fill="#858585" d="M 83.5,20.5 C 83.5858,21.4959 83.2524,22.3292 82.5,23C 80.6131,23.7796 78.9464,23.6129 77.5,22.5C 79.4977,22.6618 81.4977,21.9951 83.5,20.5 Z"/></g>
<g><path style="opacity:1" fill="#7d7d7d" d="M 76.5,22.5 C 76.5858,23.4959 76.2524,24.3292 75.5,25C 73.6131,25.7796 71.9464,25.6129 70.5,24.5C 72.4977,24.6618 74.4977,23.9951 76.5,22.5 Z"/></g>
<g><path style="opacity:1" fill="#707070" d="M 288.5,23.5 C 287.833,24.8333 286.833,25.8333 285.5,26.5C 285.5,24.5 286.5,23.5 288.5,23.5 Z"/></g>
<g><path style="opacity:1" fill="#a8a8a8" d="M 298.5,22.5 C 297.461,24.5311 295.795,25.8645 293.5,26.5C 294.579,24.457 296.246,23.1237 298.5,22.5 Z"/></g>
<g><path style="opacity:1" fill="#ababab" d="M 109.5,24.5 C 106.781,25.913 103.781,26.5797 100.5,26.5C 103.219,25.087 106.219,24.4203 109.5,24.5 Z"/></g>
<g><path style="opacity:1" fill="#868686" d="M 69.5,24.5 C 68.2627,26.0968 66.596,27.2635 64.5,28C 54.8286,30.2924 45.3286,33.1257 36,36.5C 35.2352,36.4301 34.7352,36.0967 34.5,35.5C 42.9972,32.499 51.8305,29.499 61,26.5C 61.3333,26.8333 61.6667,27.1667 62,27.5C 64.2082,24.9798 66.7082,23.9798 69.5,24.5 Z"/></g>
<g><path style="opacity:0.388" fill="#a3a3a3" d="M 393.5,18.5 C 393.833,18.5 394.167,18.5 394.5,18.5C 394.5,19.5 394.5,20.5 394.5,21.5C 390.407,30.6387 386.073,40.1387 381.5,50C 381.833,50.3333 382.167,50.6667 382.5,51C 382.026,52.7286 381.026,53.8953 379.5,54.5C 380.356,50.4299 381.523,46.4299 383,42.5C 386.863,34.4622 390.363,26.4622 393.5,18.5 Z"/></g>
<g><path style="opacity:1" fill="#bebebe" d="M 284.5,26.5 C 284.085,28.9477 285.085,30.2811 287.5,30.5C 289.765,29.5684 291.765,28.2351 293.5,26.5C 291.813,32.1073 288.647,33.4407 284,30.5C 283.235,28.9343 283.402,27.6009 284.5,26.5 Z"/></g>
<g><path style="opacity:1" fill="#111111" d="M 129.5,31.5 C 137.2,31.3442 144.2,33.5108 150.5,38C 156.091,42.3399 157.758,47.8399 155.5,54.5C 151.886,56.4741 148.886,59.1408 146.5,62.5C 146.957,63.2975 147.624,63.6309 148.5,63.5C 150.183,65.5136 152.183,67.1802 154.5,68.5C 156.85,70.2133 157.85,72.5466 157.5,75.5C 155.5,76.8333 153.5,76.8333 151.5,75.5C 146.836,70.8368 141.503,67.1701 135.5,64.5C 134.432,63.5655 133.099,63.2322 131.5,63.5C 131.5,67.5 131.5,71.5 131.5,75.5C 129.359,78.0186 127.359,78.0186 125.5,75.5C 125.473,61.8154 125.973,48.1487 127,34.5C 127.698,33.3094 128.531,32.3094 129.5,31.5 Z"/></g>
<g><path style="opacity:1" fill="#a2a2a2" d="M 223.5,35.5 C 215.598,33.6728 207.598,33.1728 199.5,34C 198.584,34.2784 197.918,34.7784 197.5,35.5C 197.167,35.5 196.833,35.5 196.5,35.5C 196.577,34.2502 197.244,33.4169 198.5,33C 205.167,32.3333 211.833,32.3333 218.5,33C 220.315,33.7568 221.981,34.5902 223.5,35.5 Z"/></g>
<g><path style="opacity:1" fill="#a0a0a0" d="M 183.5,35.5 C 176.463,34.5236 169.463,34.5236 162.5,35.5C 162.611,34.8826 162.944,34.3826 163.5,34C 170.4,33.2104 177.066,33.7104 183.5,35.5 Z"/></g>
<g><path style="opacity:1" fill="#0d0d0d" d="M 223.5,35.5 C 223.833,35.5 224.167,35.5 224.5,35.5C 227.48,38.1999 227.146,40.1999 223.5,41.5C 216.872,40.5763 210.206,40.243 203.5,40.5C 203.5,44.1667 203.5,47.8333 203.5,51.5C 207.466,50.8379 211.466,50.5045 215.5,50.5C 215.833,50.5 216.167,50.5 216.5,50.5C 218.599,51.6118 220.933,52.2785 223.5,52.5C 223.747,54.8583 223.081,56.8583 221.5,58.5C 217.5,58.5 213.5,58.5 209.5,58.5C 207.393,57.5318 205.059,57.1984 202.5,57.5C 202.5,61.1667 202.5,64.8333 202.5,68.5C 202.5,72.1667 202.5,75.8333 202.5,79.5C 200.784,79.6287 199.117,79.962 197.5,80.5C 196.833,80.5 196.5,80.1667 196.5,79.5C 196.363,64.8187 196.697,50.152 197.5,35.5C 197.918,34.7784 198.584,34.2784 199.5,34C 207.598,33.1728 215.598,33.6728 223.5,35.5 Z"/></g>
<g><path style="opacity:1" fill="#0e0e0e" d="M 183.5,35.5 C 184.167,35.5 184.833,35.5 185.5,35.5C 186.952,36.3019 188.618,36.8019 190.5,37C 191.337,38.0113 191.67,39.1779 191.5,40.5C 190.833,40.8333 190.167,41.1667 189.5,41.5C 185.833,41.5 182.167,41.5 178.5,41.5C 178.5,51.1667 178.5,60.8333 178.5,70.5C 181.5,70.5 184.5,70.5 187.5,70.5C 188.167,71.1667 188.833,71.8333 189.5,72.5C 189.863,74.9115 188.863,76.4115 186.5,77C 179.167,77.6667 171.833,77.6667 164.5,77C 162.963,75.8904 162.297,74.3904 162.5,72.5C 165.061,71.0823 167.728,70.0823 170.5,69.5C 171.377,62.172 172.043,54.672 172.5,47C 172.494,44.9674 172.161,43.134 171.5,41.5C 168.813,41.6641 166.146,41.4974 163.5,41C 161.365,39.4443 161.032,37.6109 162.5,35.5C 169.463,34.5236 176.463,34.5236 183.5,35.5 Z"/></g>
<g><path style="opacity:0.039" fill="#bcbcbc" d="M 33.5,35.5 C 33.6716,36.4916 33.3382,37.1583 32.5,37.5C 31.8333,37.5 31.5,37.1667 31.5,36.5C 31.8417,35.6618 32.5084,35.3284 33.5,35.5 Z"/></g>
<g><path style="opacity:1" fill="#8b8b8b" d="M 185.5,35.5 C 187.527,35.3379 189.527,35.5045 191.5,36C 192.801,37.6155 192.801,39.1155 191.5,40.5C 191.67,39.1779 191.337,38.0113 190.5,37C 188.618,36.8019 186.952,36.3019 185.5,35.5 Z"/></g>
<g><path style="opacity:1" fill="#8d8d8d" d="M 301.5,38.5 C 293.501,37.8971 285.501,37.7304 277.5,38C 275.963,39.1096 275.297,40.6096 275.5,42.5C 272.829,40.4116 273.163,38.5782 276.5,37C 285.046,36.2928 293.379,36.7928 301.5,38.5 Z"/></g>
<g><path style="opacity:1" fill="#676767" d="M 259.5,38.5 C 257.486,38.3915 255.82,39.0582 254.5,40.5C 254.414,39.5041 254.748,38.6708 255.5,38C 257.066,37.235 258.399,37.4017 259.5,38.5 Z"/></g>
<g><path style="opacity:1" fill="#0c0c0c" d="M 301.5,38.5 C 302.391,39.1098 303.391,39.4431 304.5,39.5C 304.863,41.9115 303.863,43.4115 301.5,44C 298.183,44.4983 294.85,44.665 291.5,44.5C 291.5,54.1667 291.5,63.8333 291.5,73.5C 295.234,73.3227 298.901,73.6561 302.5,74.5C 302.942,78.3843 301.275,80.3843 297.5,80.5C 290.5,80.5 283.5,80.5 276.5,80.5C 275.85,78.5648 275.517,76.5648 275.5,74.5C 278.28,73.9216 280.947,73.2549 283.5,72.5C 284.628,63.0161 285.295,53.3494 285.5,43.5C 282.098,43.6576 278.764,43.3242 275.5,42.5C 275.297,40.6096 275.963,39.1096 277.5,38C 285.501,37.7304 293.501,37.8971 301.5,38.5 Z"/></g>
<g><path style="opacity:1" fill="#0d0d0d" d="M 259.5,38.5 C 259.833,39.1667 260.167,39.8333 260.5,40.5C 261.822,46.768 262.822,53.1013 263.5,59.5C 263.808,63.5948 264.641,67.5948 266,71.5C 266.383,72.056 266.883,72.3893 267.5,72.5C 268.219,74.7638 268.552,77.0971 268.5,79.5C 266.379,79.6747 264.379,79.3414 262.5,78.5C 260.886,75.6071 259.553,72.6071 258.5,69.5C 253.32,68.1853 247.986,68.1853 242.5,69.5C 241.234,73.8211 238.734,77.1545 235,79.5C 234.329,78.7476 233.496,78.4142 232.5,78.5C 231.167,77.1667 231.167,75.8333 232.5,74.5C 235.171,68.9908 238.171,63.6575 241.5,58.5C 242.338,58.1583 242.672,57.4916 242.5,56.5C 244.262,55.7377 245.262,54.4044 245.5,52.5C 246.376,52.6309 247.043,52.2975 247.5,51.5C 249.223,48.4659 250.89,45.4659 252.5,42.5C 252.5,41.1667 253.167,40.5 254.5,40.5C 255.82,39.0582 257.486,38.3915 259.5,38.5 Z"/></g>
<g><path style="opacity:1" fill="#545454" d="M 31.5,36.5 C 31.5,37.1667 31.8333,37.5 32.5,37.5C 30.4024,38.935 28.0691,40.1016 25.5,41C 23.9343,41.765 22.6009,41.5983 21.5,40.5C 24.7871,38.504 28.1204,37.1707 31.5,36.5 Z"/></g>
<g><path style="opacity:1" fill="#f3f3f3" d="M 138.5,39.5 C 139.93,39.4208 141.264,39.7542 142.5,40.5C 152.137,46.5198 151.803,51.5198 141.5,55.5C 138.833,55.5 136.167,55.5 133.5,55.5C 133.5,50.1667 133.5,44.8333 133.5,39.5C 135.167,39.5 136.833,39.5 138.5,39.5 Z"/></g>
<g><path style="opacity:1" fill="#a7a7a7" d="M 224.5,35.5 C 228.78,36.5589 229.446,38.7256 226.5,42C 219.191,41.8138 211.858,41.6471 204.5,41.5C 204.5,44.1667 204.5,46.8333 204.5,49.5C 208.371,49.185 212.038,49.5184 215.5,50.5C 211.466,50.5045 207.466,50.8379 203.5,51.5C 203.5,47.8333 203.5,44.1667 203.5,40.5C 210.206,40.243 216.872,40.5763 223.5,41.5C 227.146,40.1999 227.48,38.1999 224.5,35.5 Z"/></g>
<g><path style="opacity:0.741" fill="#959595" d="M 19.5,40.5 C 19.5858,41.4959 19.2524,42.3292 18.5,43C 11.8169,43.8709 7.48356,47.3709 5.5,53.5C 5.06178,53.5654 4.72845,53.3988 4.5,53C 5.19811,50.5463 6.19811,48.2129 7.5,46C 11.2719,43.5651 15.2719,41.7318 19.5,40.5 Z"/></g>
<g><path style="opacity:1" fill="#646464" d="M 129.5,31.5 C 128.531,32.3094 127.698,33.3094 127,34.5C 125.973,48.1487 125.473,61.8154 125.5,75.5C 124.201,61.6433 124.367,47.6433 126,33.5C 126.71,32.0267 127.876,31.3601 129.5,31.5 Z"/></g>
<g><path style="opacity:1" fill="#545454" d="M 252.5,42.5 C 250.89,45.4659 249.223,48.4659 247.5,51.5C 247.043,52.2975 246.376,52.6309 245.5,52.5C 246.851,48.4584 249.185,45.1251 252.5,42.5 Z"/></g>
<g><path style="opacity:1" fill="#bbbbbb" d="M 138.5,39.5 C 136.833,39.5 135.167,39.5 133.5,39.5C 133.5,44.8333 133.5,50.1667 133.5,55.5C 136.167,55.5 138.833,55.5 141.5,55.5C 138.713,56.4767 135.713,56.81 132.5,56.5C 132.5,50.5 132.5,44.5 132.5,38.5C 134.735,38.2053 136.735,38.5386 138.5,39.5 Z"/></g>
<g><path style="opacity:1" fill="#b7b7b7" d="M 216.5,50.5 C 223.107,48.749 225.607,51.0823 224,57.5C 223.329,58.2524 222.496,58.5858 221.5,58.5C 223.081,56.8583 223.747,54.8583 223.5,52.5C 220.933,52.2785 218.599,51.6118 216.5,50.5 Z"/></g>
<g><path style="opacity:1" fill="#a8a8a8" d="M 260.5,40.5 C 261.222,40.9175 261.722,41.5842 262,42.5C 263.385,49.4756 264.551,56.4756 265.5,63.5C 264.833,62.1667 264.167,60.8333 263.5,59.5C 262.822,53.1013 261.822,46.768 260.5,40.5 Z"/></g>
<g><path style="opacity:1" fill="#6e6e6e" d="M 245.5,52.5 C 245.262,54.4044 244.262,55.7377 242.5,56.5C 242.738,54.5956 243.738,53.2623 245.5,52.5 Z"/></g>
<g><path style="opacity:1" fill="#585858" d="M 255.5,51.5 C 253.726,52.3696 252.393,53.703 251.5,55.5C 251.229,51.8488 252.563,50.5154 255.5,51.5 Z"/></g>
<g><path style="opacity:1" fill="#e1e1e1" d="M 255.5,51.5 C 256.7,54.969 256.7,58.3023 255.5,61.5C 252.612,62.0102 250.279,61.3435 248.5,59.5C 249.5,58.1667 250.5,56.8333 251.5,55.5C 252.393,53.703 253.726,52.3696 255.5,51.5 Z"/></g>
<g><path style="opacity:1" fill="#8e8e8e" d="M 171.5,41.5 C 172.161,43.134 172.494,44.9674 172.5,47C 172.043,54.672 171.377,62.172 170.5,69.5C 170.538,60.1536 170.871,50.8203 171.5,41.5 Z"/></g>
<g><path style="opacity:1" fill="#a8a8a8" d="M 304.5,39.5 C 305.801,40.8845 305.801,42.3845 304.5,44C 300.439,44.7308 296.606,45.8975 293,47.5C 292.5,55.8267 292.334,64.16 292.5,72.5C 295.518,72.3354 298.518,72.502 301.5,73C 302.056,73.3826 302.389,73.8826 302.5,74.5C 298.901,73.6561 295.234,73.3227 291.5,73.5C 291.5,63.8333 291.5,54.1667 291.5,44.5C 294.85,44.665 298.183,44.4983 301.5,44C 303.863,43.4115 304.863,41.9115 304.5,39.5 Z"/></g>
<g><path style="opacity:0.945" fill="#909090" d="M 6.5,56.5 C 8.74085,57.2998 9.74085,58.9664 9.5,61.5C 7.74973,60.3406 6.74973,58.674 6.5,56.5 Z"/></g>
<g><path style="opacity:1" fill="#a3a3a3" d="M 155.5,54.5 C 153.167,57.5 150.833,60.5 148.5,63.5C 147.624,63.6309 146.957,63.2975 146.5,62.5C 148.886,59.1408 151.886,56.4741 155.5,54.5 Z"/></g>
<g><path style="opacity:1" fill="#868686" d="M 196.5,35.5 C 196.833,35.5 197.167,35.5 197.5,35.5C 196.697,50.152 196.363,64.8187 196.5,79.5C 195.167,64.8333 195.167,50.1667 196.5,35.5 Z"/></g>
<g><path style="opacity:1" fill="#6b6b6b" d="M 248.5,59.5 C 250.279,61.3435 252.612,62.0102 255.5,61.5C 253.052,62.4731 250.385,62.8064 247.5,62.5C 247.263,61.209 247.596,60.209 248.5,59.5 Z"/></g>
<g><path style="opacity:1" fill="#656565" d="M 241.5,58.5 C 238.171,63.6575 235.171,68.9908 232.5,74.5C 233.901,70.9228 235.068,67.2561 236,63.5C 238.276,62.2381 240.109,60.5714 241.5,58.5 Z"/></g>
<g><path style="opacity:1" fill="#575757" d="M 209.5,58.5 C 207.5,58.5 205.5,58.5 203.5,58.5C 203.5,61.8333 203.5,65.1667 203.5,68.5C 203.167,68.5 202.833,68.5 202.5,68.5C 202.5,64.8333 202.5,61.1667 202.5,57.5C 205.059,57.1984 207.393,57.5318 209.5,58.5 Z"/></g>
<g><path style="opacity:1" fill="#a7a7a7" d="M 9.5,62.5 C 11.539,63.911 12.539,65.911 12.5,68.5C 10.8214,67.0003 9.48805,65.167 8.5,63C 8.72845,62.6012 9.06178,62.4346 9.5,62.5 Z"/></g>
<g><path style="opacity:1" fill="#adadad" d="M 189.5,41.5 C 186.375,42.4794 183.042,42.8128 179.5,42.5C 179.5,51.5 179.5,60.5 179.5,69.5C 182.385,69.1936 185.052,69.5269 187.5,70.5C 184.5,70.5 181.5,70.5 178.5,70.5C 178.5,60.8333 178.5,51.1667 178.5,41.5C 182.167,41.5 185.833,41.5 189.5,41.5 Z"/></g>
<g><path style="opacity:1" fill="#484848" d="M 263.5,59.5 C 264.167,60.8333 264.833,62.1667 265.5,63.5C 266.01,66.5394 266.677,69.5394 267.5,72.5C 266.883,72.3893 266.383,72.056 266,71.5C 264.641,67.5948 263.808,63.5948 263.5,59.5 Z"/></g>
<g><path style="opacity:1" fill="#8b8b8b" d="M 275.5,42.5 C 278.764,43.3242 282.098,43.6576 285.5,43.5C 285.295,53.3494 284.628,63.0161 283.5,72.5C 283.313,63.1388 283.646,53.8055 284.5,44.5C 281.813,44.6641 279.146,44.4974 276.5,44C 275.944,43.6174 275.611,43.1174 275.5,42.5 Z"/></g>
<g><path style="opacity:1" fill="#8d8d8d" d="M 135.5,64.5 C 134.5,64.5 133.5,64.5 132.5,64.5C 132.815,68.3714 132.482,72.0381 131.5,75.5C 131.5,71.5 131.5,67.5 131.5,63.5C 133.099,63.2322 134.432,63.5655 135.5,64.5 Z"/></g>
<g><path style="opacity:1" fill="#9c9c9c" d="M 258.5,69.5 C 253.5,69.5 248.5,69.5 243.5,69.5C 243.067,75.0383 240.233,78.7049 235,80.5C 233.699,80.3613 232.866,79.6946 232.5,78.5C 233.496,78.4142 234.329,78.7476 235,79.5C 238.734,77.1545 241.234,73.8211 242.5,69.5C 247.986,68.1853 253.32,68.1853 258.5,69.5 Z"/></g>
<g><path style="opacity:1" fill="#939393" d="M 170.5,69.5 C 167.728,70.0823 165.061,71.0823 162.5,72.5C 162.414,71.5041 162.748,70.6708 163.5,70C 165.81,69.5034 168.143,69.3367 170.5,69.5 Z"/></g>
<g><path style="opacity:1" fill="#b7b7b7" d="M 20.5,65.5 C 21.8846,66.5736 23.0513,67.9069 24,69.5C 25.323,73.6245 26.823,77.6245 28.5,81.5C 24.9462,76.6488 22.2796,71.3155 20.5,65.5 Z"/></g>
<g><path style="opacity:0.306" fill="#aaaaaa" d="M 379.5,55.5 C 380.043,55.56 380.376,55.8933 380.5,56.5C 378.613,58.8878 377.946,61.3878 378.5,64C 376.572,66.6727 375.238,69.6727 374.5,73C 374.833,73.3333 375.167,73.6667 375.5,74C 374.219,75.4087 373.219,76.9087 372.5,78.5C 373.459,70.3106 375.792,62.644 379.5,55.5 Z"/></g>
<g><path style="opacity:0.582" fill="#d2d2d2" d="M 12.5,70.5 C 14.7271,71.4006 15.7271,73.0672 15.5,75.5C 14.1103,74.1007 13.1103,72.4341 12.5,70.5 Z"/></g>
<g><path style="opacity:1" fill="#c1c1c1" d="M 154.5,68.5 C 156.997,69.0813 158.664,70.5813 159.5,73C 159.316,74.3756 158.649,75.2089 157.5,75.5C 157.85,72.5466 156.85,70.2133 154.5,68.5 Z"/></g>
<g><path style="opacity:1" fill="#818181" d="M 283.5,72.5 C 280.947,73.2549 278.28,73.9216 275.5,74.5C 277.635,72.631 280.302,71.9644 283.5,72.5 Z"/></g>
<g><path style="opacity:1" fill="#828282" d="M 151.5,75.5 C 153.5,76.8333 155.5,76.8333 157.5,75.5C 155.5,78.1667 153.5,78.1667 151.5,75.5 Z"/></g>
<g><path style="opacity:1" fill="#8e8e8e" d="M 162.5,72.5 C 162.297,74.3904 162.963,75.8904 164.5,77C 171.833,77.6667 179.167,77.6667 186.5,77C 188.863,76.4115 189.863,74.9115 189.5,72.5C 190.887,74.4888 190.553,76.3221 188.5,78C 180.167,78.6667 171.833,78.6667 163.5,78C 161.447,76.3221 161.113,74.4888 162.5,72.5 Z"/></g>
<g><path style="opacity:1" fill="#6a6a6a" d="M 275.5,74.5 C 275.517,76.5648 275.85,78.5648 276.5,80.5C 275.053,79.8658 274.387,78.6991 274.5,77C 274.528,75.9302 274.861,75.0968 275.5,74.5 Z"/></g>
<g><path style="opacity:1" fill="#676767" d="M 302.5,74.5 C 304.69,79.3272 303.023,81.3272 297.5,80.5C 301.275,80.3843 302.942,78.3843 302.5,74.5 Z"/></g>
<g><path style="opacity:1" fill="#a0a0a0" d="M 202.5,68.5 C 202.833,68.5 203.167,68.5 203.5,68.5C 203.666,72.5138 203.499,76.5138 203,80.5C 201.057,81.807 199.223,81.807 197.5,80.5C 199.117,79.962 200.784,79.6287 202.5,79.5C 202.5,75.8333 202.5,72.1667 202.5,68.5 Z"/></g>
<g><path style="opacity:1" fill="#acacac" d="M 262.5,78.5 C 264.379,79.3414 266.379,79.6747 268.5,79.5C 268.209,80.6491 267.376,81.3158 266,81.5C 263.725,81.7224 262.559,80.7224 262.5,78.5 Z"/></g>
<g><path style="opacity:1" fill="#737373" d="M 363.5,78.5 C 363.102,82.7607 362.102,86.7607 360.5,90.5C 360.584,86.1629 361.584,82.1629 363.5,78.5 Z"/></g>
<g><path style="opacity:0.604" fill="#898989" d="M 372.5,79.5 C 372.107,81.1246 372.107,82.9579 372.5,85C 371.906,85.4643 371.239,85.631 370.5,85.5C 370.054,82.9899 370.72,80.9899 372.5,79.5 Z"/></g>
<g><path style="opacity:1" fill="#7e7e7e" d="M 189.5,96.5 C 189.5,96.1667 189.5,95.8333 189.5,95.5C 203.837,95.3334 218.171,95.5001 232.5,96C 236.688,96.1762 240.688,96.6762 244.5,97.5C 226.178,96.7066 207.845,96.3733 189.5,96.5 Z"/></g>
<g><path style="opacity:1" fill="#a5a5a5" d="M 189.5,95.5 C 189.5,95.8333 189.5,96.1667 189.5,96.5C 179.488,96.5533 169.488,96.8866 159.5,97.5C 169.283,95.8416 179.283,95.175 189.5,95.5 Z"/></g>
<g><path style="opacity:1" fill="#8b8b8b" d="M 34.5,96.5 C 36.1042,97.287 36.7709,98.6203 36.5,100.5C 35.3263,99.4863 34.6596,98.153 34.5,96.5 Z"/></g>
<g><path style="opacity:1" fill="#8b8b8b" d="M 159.5,97.5 C 154.354,98.5514 149.021,99.2181 143.5,99.5C 148.568,97.8224 153.902,97.1557 159.5,97.5 Z"/></g>
<g><path style="opacity:1" fill="#6a6a6a" d="M 257.5,98.5 C 261.198,98.5524 264.865,98.8857 268.5,99.5C 268.5,99.8333 268.5,100.167 268.5,100.5C 264.613,100.354 260.946,99.6874 257.5,98.5 Z"/></g>
<g><path style="opacity:1" fill="#c3c3c3" d="M 268.5,100.5 C 268.5,100.167 268.5,99.8333 268.5,99.5C 275.147,99.331 281.48,100.331 287.5,102.5C 281.167,101.833 274.833,101.167 268.5,100.5 Z"/></g>
<g><path style="opacity:1" fill="#6b6b6b" d="M 125.5,101.5 C 123.095,102.768 120.428,103.435 117.5,103.5C 119.838,101.96 122.505,101.294 125.5,101.5 Z"/></g>
<g><path style="opacity:1" fill="#736a80" d="M 224.5,104.5 C 204.158,104.424 183.825,104.758 163.5,105.5C 175.969,104.05 188.636,103.384 201.5,103.5C 209.341,103.5 217.007,103.834 224.5,104.5 Z"/></g>
<g><path style="opacity:1" fill="#8f8f8f" d="M 287.5,102.5 C 290.781,102.42 293.781,103.087 296.5,104.5C 293.219,104.58 290.219,103.913 287.5,102.5 Z"/></g>
<g><path style="opacity:1" fill="#d8c5f2" d="M 15.5,77.5 C 17.4109,77.5743 18.5776,78.5743 19,80.5C 25.0486,94.526 31.0486,108.526 37,122.5C 40.682,128.173 45.8487,130.007 52.5,128C 82.9518,117.389 114.285,110.555 146.5,107.5C 151.434,107.771 156.1,107.104 160.5,105.5C 161.5,105.5 162.5,105.5 163.5,105.5C 183.825,104.758 204.158,104.424 224.5,104.5C 231.137,105.276 237.804,105.609 244.5,105.5C 249.903,107.205 255.57,107.872 261.5,107.5C 277.212,109.507 292.878,111.841 308.5,114.5C 313.497,116.749 318.83,118.083 324.5,118.5C 326.515,119.924 328.848,120.59 331.5,120.5C 331.833,121.167 332.167,121.833 332.5,122.5C 329.855,131.914 326.521,141.08 322.5,150C 322.833,150.333 323.167,150.667 323.5,151C 321.562,153.47 320.396,156.304 320,159.5C 318.968,161.027 317.801,162.36 316.5,163.5C 316.167,163.5 315.833,163.5 315.5,163.5C 282.534,137.683 244.367,122.683 201,118.5C 196.028,117.337 191.028,116.337 186,115.5C 182.259,116.463 178.259,116.13 174,114.5C 160.599,114.74 146.599,114.74 132,114.5C 126.57,115.008 121.237,116.008 116,117.5C 114.333,117.167 112.667,116.833 111,116.5C 82.8925,120.432 54.5592,128.766 26,141.5C 25,140.833 24,140.167 23,139.5C 14.8576,122.177 7.02424,104.843 -0.5,87.5C -0.5,85.8333 -0.5,84.1667 -0.5,82.5C 4.82905,80.8341 10.1624,79.1675 15.5,77.5 Z"/></g>
<g><path style="opacity:1" fill="#848484" d="M 103.5,105.5 C 101.095,106.768 98.4282,107.435 95.5,107.5C 97.8383,105.96 100.505,105.294 103.5,105.5 Z"/></g>
<g><path style="opacity:1" fill="#9488a5" d="M 160.5,105.5 C 156.1,107.104 151.434,107.771 146.5,107.5C 150.919,106.028 155.586,105.362 160.5,105.5 Z"/></g>
<g><path style="opacity:1" fill="#9a8ead" d="M 244.5,105.5 C 250.349,105.816 256.016,106.482 261.5,107.5C 255.57,107.872 249.903,107.205 244.5,105.5 Z"/></g>
<g><path style="opacity:1" fill="#8c8c8c" d="M 303.5,105.5 C 306.495,105.294 309.162,105.96 311.5,107.5C 308.572,107.435 305.905,106.768 303.5,105.5 Z"/></g>
<g><path style="opacity:0.906" fill="#9e9e9e" d="M 370.5,86.5 C 370.463,91.8921 369.463,97.3921 367.5,103C 368.898,104.649 368.564,105.982 366.5,107C 365.908,111.775 365.908,116.442 366.5,121C 364.875,121.853 364.542,122.853 365.5,124C 362.999,131.329 358.665,132.496 352.5,127.5C 355.066,127.344 357.566,127.678 360,128.5C 361.261,128.241 362.261,127.574 363,126.5C 363.939,116.445 365.272,106.445 367,96.5C 367.701,92.8909 368.868,89.5575 370.5,86.5 Z"/></g>
<g><path style="opacity:1" fill="#b7b7b7" d="M 357.5,106.5 C 356.92,110.81 356.586,115.143 356.5,119.5C 354.214,119.405 352.214,118.738 350.5,117.5C 352.144,117.286 353.644,117.62 355,118.5C 355.189,114.233 356.023,110.233 357.5,106.5 Z"/></g>
<g><path style="opacity:1" fill="#888888" d="M 334.5,112.5 C 336.786,112.595 338.786,113.262 340.5,114.5C 338.102,114.741 336.102,114.074 334.5,112.5 Z"/></g>
<g><path style="opacity:1" fill="#5a5463" d="M 308.5,114.5 C 314.094,115.232 319.427,116.565 324.5,118.5C 318.83,118.083 313.497,116.749 308.5,114.5 Z"/></g>
<g><path style="opacity:0.42" fill="#9d9c9d" d="M 331.5,120.5 C 337.311,121.402 342.977,122.902 348.5,125C 349.571,125.852 350.571,126.685 351.5,127.5C 344.807,125.912 338.474,124.246 332.5,122.5C 332.167,121.833 331.833,121.167 331.5,120.5 Z"/></g>
</svg>
