<?xml version="1.0" encoding="UTF-8"?>
<!DOCTYPE svg PUBLIC "-//W3C//DTD SVG 1.1//EN" "http://www.w3.org/Graphics/SVG/1.1/DTD/svg11.dtd">
<svg xmlns="http://www.w3.org/2000/svg" version="1.1" width="314px" height="450px" style="shape-rendering:geometricPrecision; text-rendering:geometricPrecision; image-rendering:optimizeQuality; fill-rule:evenodd; clip-rule:evenodd" xmlns:xlink="http://www.w3.org/1999/xlink">
<g><path style="opacity:1" fill="#9598ad" d="M 228.5,-0.5 C 229.5,-0.5 230.5,-0.5 231.5,-0.5C 232.167,0.5 232.833,1.5 233.5,2.5C 232.183,2.17905 230.849,1.84572 229.5,1.5C 227.489,2.51864 225.489,3.51864 223.5,4.5C 224.861,2.47266 226.527,0.805998 228.5,-0.5 Z"/></g>
<g><path style="opacity:0.671" fill="#c3c4d1" d="M 234.5,2.5 C 236.587,3.58457 237.92,5.25124 238.5,7.5C 236.413,6.41543 235.08,4.74876 234.5,2.5 Z"/></g>
<g><path style="opacity:1" fill="#9195b2" d="M 257.5,99.5 C 259.117,98.4107 259.95,96.744 260,94.5C 260.667,87.1667 260.667,79.8333 260,72.5C 258.887,68.4919 257.387,64.6586 255.5,61C 253.331,60.5706 251.331,61.0706 249.5,62.5C 248.779,54.1882 246.946,46.1882 244,38.5C 241.167,37.1304 238.5,37.4637 236,39.5C 235.805,31.8873 233.972,24.7206 230.5,18C 229.833,17.3333 229.167,17.3333 228.5,18C 217.16,31.3486 209.827,46.6819 206.5,64C 206.759,65.7866 207.425,67.2866 208.5,68.5C 204.548,67.7279 200.548,67.3946 196.5,67.5C 197.139,60.2515 198.805,53.2515 201.5,46.5C 208.577,31.1955 217.577,17.0288 228.5,4C 231.776,5.23652 234.609,7.40319 237,10.5C 250.951,28.9958 260.285,49.6625 265,72.5C 266.15,82.9129 264.65,92.9129 260.5,102.5C 259.145,101.812 258.145,100.812 257.5,99.5 Z"/></g>
<g><path style="opacity:1" fill="#030303" d="M 260.5,6.5 C 261.5,6.5 262.5,6.5 263.5,6.5C 263.5,21.5 263.5,36.5 263.5,51.5C 261.98,49.1098 260.98,46.4432 260.5,43.5C 260.5,31.1667 260.5,18.8333 260.5,6.5 Z"/></g>
<g><path style="opacity:0.184" fill="#cfcfcf" d="M 260.5,6.5 C 260.5,18.8333 260.5,31.1667 260.5,43.5C 259.599,42.7095 258.932,41.7095 258.5,40.5C 259.167,29.1667 259.833,17.8333 260.5,6.5 Z"/></g>
<g><path style="opacity:0.37" fill="#9f9f9f" d="M 264.5,54.5 C 263.596,53.791 263.263,52.791 263.5,51.5C 263.5,36.5 263.5,21.5 263.5,6.5C 262.5,6.5 261.5,6.5 260.5,6.5C 261.078,4.55651 262.078,4.22318 263.5,5.5C 264.499,21.8197 264.833,38.1531 264.5,54.5 Z"/></g>
<g><path style="opacity:0.537" fill="#a9abbd" d="M 238.5,7.5 C 240.587,8.58457 241.92,10.2512 242.5,12.5C 240.413,11.4154 239.08,9.74876 238.5,7.5 Z"/></g>
<g><path style="opacity:1" fill="#bbc0db" d="M 257.5,99.5 C 256.167,98.8333 255.167,97.8333 254.5,96.5C 258.519,86.3987 258.352,76.0653 254,65.5C 253.667,65.1667 253.333,64.8333 253,64.5C 250.691,65.9752 248.524,67.6419 246.5,69.5C 246.428,60.1419 244.761,51.1419 241.5,42.5C 238.376,41.8711 236.042,43.2044 234.5,46.5C 233.675,47.3857 232.675,47.719 231.5,47.5C 231.666,41.4908 231.499,35.4908 231,29.5C 230.767,27.2199 229.934,25.2199 228.5,23.5C 218.476,36.8952 212.143,51.8952 209.5,68.5C 209.167,68.5 208.833,68.5 208.5,68.5C 207.425,67.2866 206.759,65.7866 206.5,64C 209.827,46.6819 217.16,31.3486 228.5,18C 229.167,17.3333 229.833,17.3333 230.5,18C 233.972,24.7206 235.805,31.8873 236,39.5C 238.5,37.4637 241.167,37.1304 244,38.5C 246.946,46.1882 248.779,54.1882 249.5,62.5C 251.331,61.0706 253.331,60.5706 255.5,61C 257.387,64.6586 258.887,68.4919 260,72.5C 260.667,79.8333 260.667,87.1667 260,94.5C 259.95,96.744 259.117,98.4107 257.5,99.5 Z"/></g>
<g><path style="opacity:1" fill="#edeef5" d="M 254.5,96.5 C 251.767,93.7606 248.767,91.4273 245.5,89.5C 235.001,79.9174 223.001,72.9174 209.5,68.5C 212.143,51.8952 218.476,36.8952 228.5,23.5C 229.934,25.2199 230.767,27.2199 231,29.5C 231.499,35.4908 231.666,41.4908 231.5,47.5C 232.675,47.719 233.675,47.3857 234.5,46.5C 236.042,43.2044 238.376,41.8711 241.5,42.5C 244.761,51.1419 246.428,60.1419 246.5,69.5C 248.524,67.6419 250.691,65.9752 253,64.5C 253.333,64.8333 253.667,65.1667 254,65.5C 258.352,76.0653 258.519,86.3987 254.5,96.5 Z"/></g>
<g><path style="opacity:1" fill="#9296b3" d="M 98.5,70.5 C 101.089,71.4194 103.089,73.086 104.5,75.5C 103.305,75.3225 102.138,74.9891 101,74.5C 99.7425,74.8499 99.4092,75.5165 100,76.5C 104.314,79.6474 108.148,83.314 111.5,87.5C 109.098,89.9092 106.431,91.9092 103.5,93.5C 91.4802,78.3343 76.4802,67.3343 58.5,60.5C 58.9403,68.2613 60.9403,75.5947 64.5,82.5C 61.9135,83.48 59.2469,83.8134 56.5,83.5C 57.0853,92.1745 59.0853,100.508 62.5,108.5C 60.6587,109.23 58.8254,109.897 57,110.5C 57.0365,124.796 62.2032,136.796 72.5,146.5C 72.1436,148.19 71.1436,149.19 69.5,149.5C 58.7809,138.729 52.2809,125.729 50,110.5C 46.3489,90.3996 46.6823,70.3996 51,50.5C 52.0665,48.7174 53.5665,48.2174 55.5,49C 70.9275,55.284 84.9275,63.784 97.5,74.5C 99.6424,73.5629 99.9757,72.2296 98.5,70.5 Z"/></g>
<g><path style="opacity:0.886" fill="#aeb0c0" d="M 200.5,41.5 C 200.5,42.1667 200.5,42.8333 200.5,43.5C 199.012,48.4671 197.012,53.1338 194.5,57.5C 195.536,51.715 197.536,46.3817 200.5,41.5 Z"/></g>
<g><path style="opacity:1" fill="#eff0f6" d="M 100.5,95.5 C 87.6942,108.974 78.6942,124.641 73.5,142.5C 65.6652,134.49 61.3318,124.823 60.5,113.5C 63.1272,114.092 65.7938,114.425 68.5,114.5C 66.1048,108.685 63.9382,102.685 62,96.5C 61.1744,93.2072 60.6744,89.8738 60.5,86.5C 64.2476,87.2074 67.9143,88.2074 71.5,89.5C 69.6408,84.7766 67.4742,80.1099 65,75.5C 63.6793,72.2302 63.0126,68.8969 63,65.5C 77.4192,73.0842 89.9192,83.0842 100.5,95.5 Z"/></g>
<g><path style="opacity:0.855" fill="#b0b2c2" d="M 194.5,57.5 C 194.6,60.667 193.933,63.667 192.5,66.5C 180.041,66.9715 167.708,68.4715 155.5,71C 144.682,74.2173 134.016,77.7173 123.5,81.5C 133.178,76.2147 143.511,72.3814 154.5,70C 166.714,67.4784 179.048,65.8118 191.5,65C 192.282,62.3281 193.282,59.8281 194.5,57.5 Z"/></g>
<g><path style="opacity:1" fill="#a3a7c2" d="M 213.5,73.5 C 186.022,73.1163 159.689,78.6163 134.5,90C 117.623,98.176 105.123,110.676 97,127.5C 94.6667,133.167 92.3333,138.833 90,144.5C 85.1713,163.182 80.5047,181.849 76,200.5C 74.5331,203.266 72.6998,205.766 70.5,208C 67.1832,208.498 63.8499,208.665 60.5,208.5C 58.7483,208.582 57.7483,207.749 57.5,206C 62.172,199.824 65.672,192.99 68,185.5C 70.6591,173.557 72.9925,161.557 75,149.5C 80.0581,129.207 89.8915,111.707 104.5,97C 128.827,79.281 156.16,70.4477 186.5,70.5C 195.627,70.4709 204.627,71.4709 213.5,73.5 Z"/></g>
<g><path style="opacity:1" fill="#9296b3" d="M 213.5,73.5 C 225.632,78.3949 236.632,85.0615 246.5,93.5C 259.079,106.498 271.079,119.998 282.5,134C 287.365,138.72 293.032,141.887 299.5,143.5C 298.705,148.637 295.705,151.971 290.5,153.5C 289.417,154.365 289.251,155.365 290,156.5C 296.239,157.071 302.406,158.238 308.5,160C 309.602,162.401 309.769,164.901 309,167.5C 303.961,180.266 296.461,191.266 286.5,200.5C 286.827,195.786 286.493,191.12 285.5,186.5C 281.834,179.67 276.168,177.17 268.5,179C 259.477,184.178 250.143,188.845 240.5,193C 234.833,193.667 229.167,193.667 223.5,193C 217.551,191.027 212.217,188.027 207.5,184C 200.5,177 193.5,170 186.5,163C 181.601,159.775 176.268,158.775 170.5,160C 168.291,161.873 166.458,164.04 165,166.5C 160.955,179.726 156.289,192.726 151,205.5C 145.198,214.322 137.031,219.489 126.5,221C 117.167,221.333 107.833,221.667 98.5,222C 91.9992,223.664 88.6658,227.831 88.5,234.5C 89.0605,239.609 90.7271,244.276 93.5,248.5C 84.6775,246.419 76.6775,242.752 69.5,237.5C 70.2389,237.631 70.9056,237.464 71.5,237C 68.8059,234.347 67.9726,231.18 69,227.5C 72.8668,223.154 77.3668,219.654 82.5,217C 77.2944,216.819 72.2944,215.986 67.5,214.5C 68.2613,213.609 69.2613,212.942 70.5,212.5C 71.3857,211.675 71.719,210.675 71.5,209.5C 67.6286,209.815 63.9619,209.482 60.5,208.5C 63.8499,208.665 67.1832,208.498 70.5,208C 72.6998,205.766 74.5331,203.266 76,200.5C 80.5047,181.849 85.1713,163.182 90,144.5C 92.3333,138.833 94.6667,133.167 97,127.5C 105.123,110.676 117.623,98.176 134.5,90C 159.689,78.6163 186.022,73.1163 213.5,73.5 Z"/></g>
<g><path style="opacity:0.953" fill="#a5a7b9" d="M 268.5,74.5 C 269.774,80.8907 269.44,87.224 267.5,93.5C 267.9,87.171 268.233,80.8376 268.5,74.5 Z"/></g>
<g><path style="opacity:1" fill="#666a89" d="M 98.5,70.5 C 99.9757,72.2296 99.6424,73.5629 97.5,74.5C 84.9275,63.784 70.9275,55.284 55.5,49C 53.5665,48.2174 52.0665,48.7174 51,50.5C 46.6823,70.3996 46.3489,90.3996 50,110.5C 52.2809,125.729 58.7809,138.729 69.5,149.5C 68.5084,149.328 67.8417,149.662 67.5,150.5C 66.078,149.075 64.4113,148.075 62.5,147.5C 52.5118,135.73 46.6785,122.064 45,106.5C 42.504,87.7011 43.1707,69.0344 47,50.5C 47.7091,47.3804 49.5424,45.3804 52.5,44.5C 70.0241,49.5872 85.3574,58.2539 98.5,70.5 Z"/></g>
<g><path style="opacity:1" fill="#bec3de" d="M 103.5,93.5 C 103.027,94.9063 102.027,95.573 100.5,95.5C 89.9192,83.0842 77.4192,73.0842 63,65.5C 63.0126,68.8969 63.6793,72.2302 65,75.5C 67.4742,80.1099 69.6408,84.7766 71.5,89.5C 67.9143,88.2074 64.2476,87.2074 60.5,86.5C 60.6744,89.8738 61.1744,93.2072 62,96.5C 63.9382,102.685 66.1048,108.685 68.5,114.5C 65.7938,114.425 63.1272,114.092 60.5,113.5C 61.3318,124.823 65.6652,134.49 73.5,142.5C 73.5674,143.959 73.2341,145.292 72.5,146.5C 62.2032,136.796 57.0365,124.796 57,110.5C 58.8254,109.897 60.6587,109.23 62.5,108.5C 59.0853,100.508 57.0853,92.1745 56.5,83.5C 59.2469,83.8134 61.9135,83.48 64.5,82.5C 60.9403,75.5947 58.9403,68.2613 58.5,60.5C 76.4802,67.3343 91.4802,78.3343 103.5,93.5 Z"/></g>
<g><path style="opacity:1" fill="#434867" d="M 194.5,114.5 C 197.518,114.335 200.518,114.502 203.5,115C 206.791,117.332 207.291,120.165 205,123.5C 198.12,130.65 190.454,131.984 182,127.5C 181.333,126.167 181.333,124.833 182,123.5C 185.236,119.082 189.402,116.082 194.5,114.5 Z"/></g>
<g><path style="opacity:1" fill="#5f6592" d="M 195.5,117.5 C 197.527,117.338 199.527,117.505 201.5,118C 202.517,119.049 202.684,120.216 202,121.5C 197.284,125.606 191.784,127.606 185.5,127.5C 185.343,126.127 185.51,124.793 186,123.5C 188.843,120.837 192.009,118.837 195.5,117.5 Z"/></g>
<g><path style="opacity:1" fill="#131415" d="M 228.5,123.5 C 247.09,122.711 259.59,131.044 266,148.5C 267.506,176.327 254.34,189.494 226.5,188C 208.899,181.625 200.732,169.125 202,150.5C 205.695,136.306 214.528,127.306 228.5,123.5 Z"/></g>
<g><path style="opacity:1" fill="#f5f5f5" d="M 226.5,127.5 C 251.034,125.815 263.201,137.148 263,161.5C 257.96,178.101 246.794,185.934 229.5,185C 207.699,177.564 200.866,163.064 209,141.5C 213.311,134.782 219.144,130.115 226.5,127.5 Z"/></g>
<g><path style="opacity:1" fill="#676a87" d="M 233.5,2.5 C 233.833,2.5 234.167,2.5 234.5,2.5C 235.08,4.74876 236.413,6.41543 238.5,7.5C 239.08,9.74876 240.413,11.4154 242.5,12.5C 249.868,20.5674 255.202,29.9007 258.5,40.5C 258.932,41.7095 259.599,42.7095 260.5,43.5C 260.98,46.4432 261.98,49.1098 263.5,51.5C 263.263,52.791 263.596,53.791 264.5,54.5C 266.729,60.978 268.062,67.6446 268.5,74.5C 268.233,80.8376 267.9,87.171 267.5,93.5C 266.535,97.8707 265.701,102.204 265,106.5C 271.415,115.586 278.582,124.086 286.5,132C 291.461,136.065 296.961,139.232 303,141.5C 304.297,146.117 303.13,149.95 299.5,153C 303.614,153.115 307.281,154.282 310.5,156.5C 311.615,158.307 312.281,160.307 312.5,162.5C 311.838,165.468 311.505,168.468 311.5,171.5C 301.214,193.627 285.714,211.293 265,224.5C 264.833,299.334 264.333,374.001 263.5,448.5C 263.833,374.164 263.5,299.83 262.5,225.5C 261.478,225.855 260.811,226.522 260.5,227.5C 258.02,228.242 255.687,229.242 253.5,230.5C 253.167,229.5 252.5,228.833 251.5,228.5C 262.221,221.803 272.221,214.136 281.5,205.5C 283.5,204.167 285.167,202.5 286.5,200.5C 296.461,191.266 303.961,180.266 309,167.5C 309.769,164.901 309.602,162.401 308.5,160C 302.406,158.238 296.239,157.071 290,156.5C 289.251,155.365 289.417,154.365 290.5,153.5C 295.705,151.971 298.705,148.637 299.5,143.5C 293.032,141.887 287.365,138.72 282.5,134C 271.079,119.998 259.079,106.498 246.5,93.5C 246.167,92.1667 245.833,90.8333 245.5,89.5C 248.767,91.4273 251.767,93.7606 254.5,96.5C 255.167,97.8333 256.167,98.8333 257.5,99.5C 258.145,100.812 259.145,101.812 260.5,102.5C 264.65,92.9129 266.15,82.9129 265,72.5C 260.285,49.6625 250.951,28.9958 237,10.5C 234.609,7.40319 231.776,5.23652 228.5,4C 217.577,17.0288 208.577,31.1955 201.5,46.5C 201.737,45.209 201.404,44.209 200.5,43.5C 200.5,42.8333 200.5,42.1667 200.5,41.5C 205.903,27.6803 213.57,15.347 223.5,4.5C 225.489,3.51864 227.489,2.51864 229.5,1.5C 230.849,1.84572 232.183,2.17905 233.5,2.5 Z"/></g>
<g><path style="opacity:1" fill="#444968" d="M 141.5,127.5 C 146.989,126.415 150.989,128.248 153.5,133C 153.375,134.627 152.875,136.127 152,137.5C 145.862,143.662 138.695,145.496 130.5,143C 128.604,141.192 128.104,139.025 129,136.5C 132.299,132.118 136.466,129.118 141.5,127.5 Z"/></g>
<g><path style="opacity:1" fill="#606693" d="M 140.5,131.5 C 143.5,131.5 146.5,131.5 149.5,131.5C 149.822,133.722 149.155,135.556 147.5,137C 142.901,139.867 137.901,141.034 132.5,140.5C 133.738,136.26 136.405,133.26 140.5,131.5 Z"/></g>
<g><path style="opacity:1" fill="#060606" d="M 222.5,139.5 C 242.672,140.843 248.839,150.843 241,169.5C 230.258,179.392 220.258,178.726 211,167.5C 209.081,164.626 208.581,161.626 209.5,158.5C 212.366,159.795 215.199,159.795 218,158.5C 218.667,157.5 218.667,156.5 218,155.5C 215.65,153.317 213.483,150.984 211.5,148.5C 214.288,144.374 217.954,141.374 222.5,139.5 Z"/></g>
<g><path style="opacity:0.627" fill="#bdbecc" d="M 62.5,147.5 C 64.4113,148.075 66.078,149.075 67.5,150.5C 67.8333,151.167 68.1667,151.833 68.5,152.5C 65.9108,151.581 63.9108,149.914 62.5,147.5 Z"/></g>
<g><path style="opacity:1" fill="#151617" d="M 110.5,153.5 C 130.473,150.893 143.973,158.893 151,177.5C 153.374,196.268 145.874,209.102 128.5,216C 107.43,220.05 93.5967,211.883 87,191.5C 85.2671,172.765 93.1004,160.099 110.5,153.5 Z"/></g>
<g><path style="opacity:1" fill="#f6f6f6" d="M 112.5,156.5 C 137.236,156.066 148.736,168.066 147,192.5C 141.352,208.083 130.185,215.25 113.5,214C 95.7201,208.288 88.2201,196.122 91,177.5C 94.7849,166.88 101.952,159.88 112.5,156.5 Z"/></g>
<g><path style="opacity:1" fill="#a7a9bb" d="M 69.5,153.5 C 70.6341,155.966 70.8007,158.633 70,161.5C 69.4616,166.147 68.2949,170.48 66.5,174.5C 67.3919,167.482 68.3919,160.482 69.5,153.5 Z"/></g>
<g><path style="opacity:0.818" fill="#9598ad" d="M 310.5,156.5 C 311.5,157.167 312.5,157.833 313.5,158.5C 313.5,161.833 313.5,165.167 313.5,168.5C 312.833,169.5 312.167,170.5 311.5,171.5C 311.505,168.468 311.838,165.468 312.5,162.5C 312.281,160.307 311.615,158.307 310.5,156.5 Z"/></g>
<g><path style="opacity:1" fill="#eeeff6" d="M 281.5,205.5 C 272.221,214.136 262.221,221.803 251.5,228.5C 225.732,242.055 198.399,250.722 169.5,254.5C 157.185,255.315 144.852,255.649 132.5,255.5C 121.237,255.214 110.237,253.547 99.5,250.5C 96.8525,247.219 94.6858,243.552 93,239.5C 90.5893,231.479 93.4226,226.645 101.5,225C 107.339,224.56 113.173,224.727 119,225.5C 134.702,225.319 146.702,218.653 155,205.5C 159.731,193.306 164.065,180.973 168,168.5C 171.797,161.902 176.963,160.736 183.5,165C 191.81,173.642 200.477,181.976 209.5,190C 220.628,197.714 232.628,199.381 245.5,195C 252.488,191.841 259.154,188.174 265.5,184C 271.639,181.345 277.139,182.178 282,186.5C 282.333,187.5 282.667,188.5 283,189.5C 283.752,194.981 283.252,200.315 281.5,205.5 Z"/></g>
<g><path style="opacity:1" fill="#6f6f6f" d="M 129.5,165.5 C 126.14,165.616 122.807,165.949 119.5,166.5C 122.708,164.469 126.041,164.135 129.5,165.5 Z"/></g>
<g><path style="opacity:1" fill="#060606" d="M 129.5,165.5 C 143.651,170.147 147.818,179.48 142,193.5C 136.599,200.869 129.432,203.369 120.5,201C 112.578,197.626 108.911,191.792 109.5,183.5C 112.084,184.393 114.751,184.726 117.5,184.5C 117.66,182.801 117.494,181.134 117,179.5C 115.145,177.645 113.312,175.812 111.5,174C 113.39,170.608 116.056,168.108 119.5,166.5C 122.807,165.949 126.14,165.616 129.5,165.5 Z"/></g>
<g><path style="opacity:0.804" fill="#b2b4c4" d="M 66.5,175.5 C 66.5377,180.703 65.2043,185.37 62.5,189.5C 63.5435,184.645 64.8769,179.978 66.5,175.5 Z"/></g>
<g><path style="opacity:1" fill="#f3f3f3" d="M 30.5,193.5 C 36.2253,220.956 49.2253,244.29 69.5,263.5C 69.5858,264.496 69.2524,265.329 68.5,266C 58.0751,265.745 54.7418,270.412 58.5,280C 58.4301,280.765 58.0967,281.265 57.5,281.5C 38.9762,264.468 23.8096,244.801 12,222.5C 8.13797,214.742 4.9713,206.742 2.5,198.5C 11.3485,197.964 19.8485,195.964 28,192.5C 28.9021,192.743 29.7354,193.077 30.5,193.5 Z"/></g>
<g><path style="opacity:0.357" fill="#afafaf" d="M 23.5,191.5 C 22.158,192.793 20.4913,193.626 18.5,194C 13.1667,195 7.83333,196 2.5,197C 0.893387,198.049 0.22672,199.549 0.5,201.5C 0.166667,201.5 -0.166667,201.5 -0.5,201.5C -0.5,199.5 -0.5,197.5 -0.5,195.5C 7.61528,194.81 15.6153,193.477 23.5,191.5 Z"/></g>
<g><path style="opacity:1" fill="#191919" d="M 206.5,200.5 C 207.5,200.5 208.5,200.5 209.5,200.5C 204.173,217.97 192.507,224.803 174.5,221C 168.259,218.589 163.926,214.423 161.5,208.5C 164.468,208.626 166.468,210.126 167.5,213C 178.713,220.483 189.713,220.15 200.5,212C 203.165,208.502 205.165,204.669 206.5,200.5 Z"/></g>
<g><path style="opacity:1" fill="#a2a6c1" d="M 67.5,214.5 C 72.2944,215.986 77.2944,216.819 82.5,217C 77.3668,219.654 72.8668,223.154 69,227.5C 67.9726,231.18 68.8059,234.347 71.5,237C 70.9056,237.464 70.2389,237.631 69.5,237.5C 63.69,234.856 59.3566,230.69 56.5,225C 58.8076,220.161 62.4743,216.661 67.5,214.5 Z"/></g>
<g><path style="opacity:1" fill="#262626" d="M 26.5,210.5 C 29.2762,212.052 30.4428,214.386 30,217.5C 27.381,216.271 24.881,216.604 22.5,218.5C 22.1667,219.833 21.8333,221.167 21.5,222.5C 19.684,220.882 18.3507,218.882 17.5,216.5C 20.2179,216.945 22.8846,216.279 25.5,214.5C 26.4287,213.311 26.762,211.978 26.5,210.5 Z"/></g>
<g><path style="opacity:1" fill="#bdc1dd" d="M 286.5,200.5 C 285.167,202.5 283.5,204.167 281.5,205.5C 283.252,200.315 283.752,194.981 283,189.5C 282.667,188.5 282.333,187.5 282,186.5C 277.139,182.178 271.639,181.345 265.5,184C 259.154,188.174 252.488,191.841 245.5,195C 232.628,199.381 220.628,197.714 209.5,190C 200.477,181.976 191.81,173.642 183.5,165C 176.963,160.736 171.797,161.902 168,168.5C 164.065,180.973 159.731,193.306 155,205.5C 146.702,218.653 134.702,225.319 119,225.5C 113.173,224.727 107.339,224.56 101.5,225C 93.4226,226.645 90.5893,231.479 93,239.5C 94.6858,243.552 96.8525,247.219 99.5,250.5C 97.4214,250.029 95.4214,249.363 93.5,248.5C 90.7271,244.276 89.0605,239.609 88.5,234.5C 88.6658,227.831 91.9992,223.664 98.5,222C 107.833,221.667 117.167,221.333 126.5,221C 137.031,219.489 145.198,214.322 151,205.5C 156.289,192.726 160.955,179.726 165,166.5C 166.458,164.04 168.291,161.873 170.5,160C 176.268,158.775 181.601,159.775 186.5,163C 193.5,170 200.5,177 207.5,184C 212.217,188.027 217.551,191.027 223.5,193C 229.167,193.667 234.833,193.667 240.5,193C 250.143,188.845 259.477,184.178 268.5,179C 276.168,177.17 281.834,179.67 285.5,186.5C 286.493,191.12 286.827,195.786 286.5,200.5 Z"/></g>
<g><path style="opacity:1" fill="#0d0e0e" d="M 185.5,182.5 C 196.157,181.753 198.324,185.753 192,194.5C 189.715,196.907 187.549,199.407 185.5,202C 178.844,201.593 173.01,199.093 168,194.5C 167.104,191.975 167.604,189.808 169.5,188C 174.74,185.534 180.073,183.7 185.5,182.5 Z"/></g>
<g><path style="opacity:1" fill="#353436" d="M 32.5,194.5 C 37.5328,216.237 47.5328,235.237 62.5,251.5C 63.0798,253.749 64.4131,255.415 66.5,256.5C 68.1667,257.5 69.5,258.833 70.5,260.5C 70.7373,261.791 70.404,262.791 69.5,263.5C 49.2253,244.29 36.2253,220.956 30.5,193.5C 30.4346,193.062 30.6012,192.728 31,192.5C 31.2784,193.416 31.7784,194.082 32.5,194.5 Z"/></g>
<g><path style="opacity:1" fill="#282828" d="M 13.5,219.5 C 15.1033,219.312 16.4366,219.812 17.5,221C 15.5372,221.844 14.2039,221.344 13.5,219.5 Z"/></g>
<g><path style="opacity:1" fill="#030303" d="M 263.5,448.5 C 263.5,448.833 263.5,449.167 263.5,449.5C 262.5,449.5 261.5,449.5 260.5,449.5C 260.5,449.167 260.5,448.833 260.5,448.5C 260.5,380.833 260.5,313.167 260.5,245.5C 260.5,239.5 260.5,233.5 260.5,227.5C 260.811,226.522 261.478,225.855 262.5,225.5C 263.5,299.83 263.833,374.164 263.5,448.5 Z"/></g>
<g><path style="opacity:1" fill="#2b2b2b" d="M 30.5,218.5 C 31.3764,218.369 32.0431,218.702 32.5,219.5C 30.473,223.7 31.8064,226.034 36.5,226.5C 36.2907,227.086 35.9574,227.586 35.5,228C 31.2888,228.921 27.2888,228.421 23.5,226.5C 25.9362,223.743 28.2696,221.077 30.5,218.5 Z"/></g>
<g><path style="opacity:1" fill="#d6c6ed" d="M 32.5,194.5 C 33.1556,195.278 33.9889,195.944 35,196.5C 38.4019,195.274 41.9019,194.607 45.5,194.5C 44.5343,207.706 46.7009,220.372 52,232.5C 55.5244,238.888 59.0244,245.221 62.5,251.5C 47.5328,235.237 37.5328,216.237 32.5,194.5 Z"/></g>
<g><path style="opacity:1" fill="#f1f2f4" d="M 260.5,227.5 C 260.5,233.5 260.5,239.5 260.5,245.5C 254.683,245.13 249.016,243.963 243.5,242C 242.313,240.981 241.313,239.814 240.5,238.5C 244.694,235.571 249.027,232.905 253.5,230.5C 255.687,229.242 258.02,228.242 260.5,227.5 Z"/></g>
<g><path style="opacity:1" fill="#252525" d="M 31.5,232.5 C 33.526,233.527 35.3593,234.861 37,236.5C 38.2853,236.05 39.452,235.383 40.5,234.5C 40.8333,234.833 41.1667,235.167 41.5,235.5C 38.5342,237.988 35.2009,239.988 31.5,241.5C 28.7028,239.743 27.7028,237.41 28.5,234.5C 29.439,236.053 30.6057,237.387 32,238.5C 32.5,238.167 33,237.833 33.5,237.5C 32.5435,235.925 31.8769,234.258 31.5,232.5 Z"/></g>
<g><path style="opacity:0.016" fill="#cdcdcd" d="M 21.5,243.5 C 22.9063,243.973 23.573,244.973 23.5,246.5C 22.0937,246.027 21.427,245.027 21.5,243.5 Z"/></g>
<g><path style="opacity:1" fill="#cdcdcd" d="M 45.5,242.5 C 46.8653,245.736 47.8653,249.069 48.5,252.5C 48.44,253.043 48.1067,253.376 47.5,253.5C 46.8333,251.167 46.1667,248.833 45.5,246.5C 44.6143,247.325 44.281,248.325 44.5,249.5C 39.0936,248.735 37.0936,251.069 38.5,256.5C 37.5386,254.735 37.2053,252.735 37.5,250.5C 35.8212,250.715 34.8212,250.048 34.5,248.5C 35.1174,248.611 35.6174,248.944 36,249.5C 36.9134,246.27 39.08,244.27 42.5,243.5C 44.2249,245.092 45.2249,244.758 45.5,242.5 Z"/></g>
<g><path style="opacity:1" fill="#212121" d="M 45.5,242.5 C 45.2249,244.758 44.2249,245.092 42.5,243.5C 39.08,244.27 36.9134,246.27 36,249.5C 35.6174,248.944 35.1174,248.611 34.5,248.5C 34.0805,246.906 33.4138,245.406 32.5,244C 32.8333,243.5 33.1667,243 33.5,242.5C 34.5321,244.04 35.8654,244.54 37.5,244C 40.0405,242.96 41.7071,241.126 42.5,238.5C 43.5207,239.901 44.5207,241.235 45.5,242.5 Z"/></g>
<g><path style="opacity:1" fill="#a5a7ba" d="M 77.5,246.5 C 82.0009,247.087 86.0009,248.754 89.5,251.5C 85.1108,250.597 81.1108,248.931 77.5,246.5 Z"/></g>
<g><path style="opacity:0.008" fill="#c5c5c5" d="M 23.5,246.5 C 25.2624,247.262 26.2624,248.596 26.5,250.5C 24.7376,249.738 23.7376,248.404 23.5,246.5 Z"/></g>
<g><path style="opacity:0.09" fill="#bebebe" d="M 26.5,250.5 C 27.9063,250.973 28.573,251.973 28.5,253.5C 27.0937,253.027 26.427,252.027 26.5,250.5 Z"/></g>
<g><path style="opacity:1" fill="#1a1a1a" d="M 48.5,252.5 C 50.3786,252.393 50.7119,252.893 49.5,254C 46.5349,256.49 43.2016,257.824 39.5,258C 38.944,257.617 38.6107,257.117 38.5,256.5C 37.0936,251.069 39.0936,248.735 44.5,249.5C 44.281,248.325 44.6143,247.325 45.5,246.5C 46.1667,248.833 46.8333,251.167 47.5,253.5C 48.1067,253.376 48.44,253.043 48.5,252.5 Z"/></g>
<g><path style="opacity:1" fill="#dddddd" d="M 40.5,251.5 C 45.2183,252.319 45.5516,253.986 41.5,256.5C 40.5481,254.955 40.2148,253.288 40.5,251.5 Z"/></g>
<g><path style="opacity:0.831" fill="#bcb5c6" d="M 62.5,251.5 C 64.5869,252.585 65.9202,254.251 66.5,256.5C 64.4131,255.415 63.0798,253.749 62.5,251.5 Z"/></g>
<g><path style="opacity:0.982" fill="#fafbfb" d="M 89.5,251.5 C 112.258,258.692 135.591,261.525 159.5,260C 138.118,274.762 114.451,280.595 88.5,277.5C 88.6699,273.002 87.3366,269.002 84.5,265.5C 85.3764,265.631 86.0431,265.298 86.5,264.5C 87.8926,260.714 89.5593,257.048 91.5,253.5C 90.7573,252.818 90.0906,252.151 89.5,251.5 Z"/></g>
<g><path style="opacity:0.035" fill="#c4c4c4" d="M 29.5,254.5 C 30.9063,254.973 31.573,255.973 31.5,257.5C 30.0937,257.027 29.427,256.027 29.5,254.5 Z"/></g>
<g><path style="opacity:1" fill="#4b4b4b" d="M 32.5,194.5 C 31.7784,194.082 31.2784,193.416 31,192.5C 30.6012,192.728 30.4346,193.062 30.5,193.5C 29.7354,193.077 28.9021,192.743 28,192.5C 19.8485,195.964 11.3485,197.964 2.5,198.5C 4.9713,206.742 8.13797,214.742 12,222.5C 23.8096,244.801 38.9762,264.468 57.5,281.5C 57.1583,282.338 56.4916,282.672 55.5,282.5C 51.7852,279.452 48.4518,276.119 45.5,272.5C 44.7377,270.738 43.4044,269.738 41.5,269.5C 37.8197,265.817 34.4864,261.817 31.5,257.5C 31.573,255.973 30.9063,254.973 29.5,254.5C 28.8333,254.5 28.5,254.167 28.5,253.5C 28.573,251.973 27.9063,250.973 26.5,250.5C 26.2624,248.596 25.2624,247.262 23.5,246.5C 23.573,244.973 22.9063,243.973 21.5,243.5C 12.4051,230.644 5.40508,216.644 0.5,201.5C 0.22672,199.549 0.893387,198.049 2.5,197C 7.83333,196 13.1667,195 18.5,194C 20.4913,193.626 22.158,192.793 23.5,191.5C 25.6878,189.245 28.3545,188.411 31.5,189C 32.4061,190.699 32.7394,192.533 32.5,194.5 Z"/></g>
<g><path style="opacity:0.627" fill="#a5a5a5" d="M 41.5,269.5 C 43.4044,269.738 44.7377,270.738 45.5,272.5C 43.5956,272.262 42.2623,271.262 41.5,269.5 Z"/></g>
<g><path style="opacity:0.141" fill="#d5d6de" d="M 83.5,297.5 C 81.2133,297.276 79.0466,296.609 77,295.5C 72.4623,297.51 67.9623,297.844 63.5,296.5C 68.1299,296.692 72.6299,296.025 77,294.5C 79.5459,294.859 81.7126,295.859 83.5,297.5 Z"/></g>
<g><path style="opacity:0.871" fill="#afb1c1" d="M 88.5,299.5 C 91.9164,299.528 94.9164,300.528 97.5,302.5C 94.2154,302.072 91.2154,301.072 88.5,299.5 Z"/></g>
<g><path style="opacity:0.671" fill="#9699ae" d="M 164.5,319.5 C 165.819,312.656 165.819,305.656 164.5,298.5C 163.264,299.246 161.93,299.579 160.5,299.5C 161.937,298.275 163.604,297.275 165.5,296.5C 166.665,304.813 166.832,313.147 166,321.5C 165.283,320.956 164.783,320.289 164.5,319.5 Z"/></g>
<g><path style="opacity:0.806" fill="#a1a3b9" d="M 148.5,311.5 C 142.167,311.5 135.833,311.5 129.5,311.5C 135.82,308.994 142.153,308.994 148.5,311.5 Z"/></g>
<g><path style="opacity:1" fill="#5d6182" d="M 200.5,43.5 C 201.404,44.209 201.737,45.209 201.5,46.5C 198.805,53.2515 197.139,60.2515 196.5,67.5C 200.548,67.3946 204.548,67.7279 208.5,68.5C 208.833,68.5 209.167,68.5 209.5,68.5C 223.001,72.9174 235.001,79.9174 245.5,89.5C 245.833,90.8333 246.167,92.1667 246.5,93.5C 236.632,85.0615 225.632,78.3949 213.5,73.5C 204.627,71.4709 195.627,70.4709 186.5,70.5C 156.16,70.4477 128.827,79.281 104.5,97C 89.8915,111.707 80.0581,129.207 75,149.5C 72.9925,161.557 70.6591,173.557 68,185.5C 65.672,192.99 62.172,199.824 57.5,206C 57.7483,207.749 58.7483,208.582 60.5,208.5C 63.9619,209.482 67.6286,209.815 71.5,209.5C 71.719,210.675 71.3857,211.675 70.5,212.5C 69.2613,212.942 68.2613,213.609 67.5,214.5C 62.4743,216.661 58.8076,220.161 56.5,225C 59.3566,230.69 63.69,234.856 69.5,237.5C 76.6775,242.752 84.6775,246.419 93.5,248.5C 95.4214,249.363 97.4214,250.029 99.5,250.5C 110.237,253.547 121.237,255.214 132.5,255.5C 137.322,256.166 142.322,256.499 147.5,256.5C 155.062,256.679 162.395,256.012 169.5,254.5C 198.399,250.722 225.732,242.055 251.5,228.5C 252.5,228.833 253.167,229.5 253.5,230.5C 249.027,232.905 244.694,235.571 240.5,238.5C 241.313,239.814 242.313,240.981 243.5,242C 249.016,243.963 254.683,245.13 260.5,245.5C 260.5,313.167 260.5,380.833 260.5,448.5C 259.5,448.5 258.5,448.5 257.5,448.5C 255.673,439.527 254.007,430.527 252.5,421.5C 252.192,419.076 252.526,416.743 253.5,414.5C 254.086,414.709 254.586,415.043 255,415.5C 255.95,421.919 257.284,428.252 259,434.5C 259.833,419.489 259.666,404.489 258.5,389.5C 255.943,390.407 253.443,391.407 251,392.5C 250.505,394.473 250.338,396.473 250.5,398.5C 249.5,398.5 248.5,398.5 247.5,398.5C 247.029,397.099 246.362,395.766 245.5,394.5C 239.312,396.404 232.978,397.404 226.5,397.5C 222.988,396.945 219.988,397.612 217.5,399.5C 216.785,406.411 215.451,413.077 213.5,419.5C 211.292,425.873 209.959,432.54 209.5,439.5C 209.706,442.495 209.04,445.162 207.5,447.5C 191.5,447.5 175.5,447.5 159.5,447.5C 156.841,442.802 156.841,438.135 159.5,433.5C 160.975,431.59 162.975,430.424 165.5,430C 171.249,429.215 176.916,429.382 182.5,430.5C 183.209,431.404 184.209,431.737 185.5,431.5C 185.322,424.251 184.322,417.251 182.5,410.5C 181.118,403.344 179.952,396.011 179,388.5C 175.07,386.587 171.237,384.587 167.5,382.5C 165.863,380.876 166.197,379.876 168.5,379.5C 171.675,381.091 175.009,382.091 178.5,382.5C 175.487,375.782 172.987,368.782 171,361.5C 168.577,350.295 167.244,338.961 167,327.5C 164.963,325.294 162.797,323.294 160.5,321.5C 159.035,320.263 157.368,319.263 155.5,318.5C 140.592,312.127 126.426,313.46 113,322.5C 112.383,323.449 112.549,324.282 113.5,325C 120.13,326.543 126.463,328.877 132.5,332C 139.59,337.649 138.59,339.649 129.5,338C 132.72,340.437 136.053,342.603 139.5,344.5C 140.833,346.5 142.5,348.167 144.5,349.5C 146.641,352.289 148.307,355.289 149.5,358.5C 147.173,358.753 145.173,358.086 143.5,356.5C 142.479,357.002 142.312,357.668 143,358.5C 150.833,365 158.667,371.5 166.5,378C 165.874,378.75 165.374,379.584 165,380.5C 164.329,379.748 163.496,379.414 162.5,379.5C 161.415,377.413 159.749,376.08 157.5,375.5C 156.415,373.413 154.749,372.08 152.5,371.5C 151.5,371.167 150.833,370.5 150.5,369.5C 149.415,367.413 147.749,366.08 145.5,365.5C 138.863,362.578 137.03,357.912 140,351.5C 135.515,347.592 130.848,343.926 126,340.5C 125.626,338.102 125.626,335.769 126,333.5C 123.942,332.771 122.109,331.771 120.5,330.5C 116.542,328.844 112.542,327.177 108.5,325.5C 107.402,324.399 107.235,323.066 108,321.5C 113.833,315.334 121,312.001 129.5,311.5C 135.833,311.5 142.167,311.5 148.5,311.5C 154.682,312.591 160.016,315.258 164.5,319.5C 164.783,320.289 165.283,320.956 166,321.5C 166.832,313.147 166.665,304.813 165.5,296.5C 163.604,297.275 161.937,298.275 160.5,299.5C 153.82,302.088 146.82,303.921 139.5,305C 125.311,306.229 111.311,305.395 97.5,302.5C 94.9164,300.528 91.9164,299.528 88.5,299.5C 86.4471,299.598 84.7804,298.931 83.5,297.5C 81.7126,295.859 79.5459,294.859 77,294.5C 72.6299,296.025 68.1299,296.692 63.5,296.5C 56.7418,294.33 54.0752,289.663 55.5,282.5C 56.4916,282.672 57.1583,282.338 57.5,281.5C 58.0967,281.265 58.4301,280.765 58.5,280C 54.7418,270.412 58.0751,265.745 68.5,266C 69.2524,265.329 69.5858,264.496 69.5,263.5C 70.404,262.791 70.7373,261.791 70.5,260.5C 73.8077,260.068 77.141,260.568 80.5,262C 82.0931,262.949 83.4264,264.115 84.5,265.5C 87.3366,269.002 88.6699,273.002 88.5,277.5C 114.451,280.595 138.118,274.762 159.5,260C 135.591,261.525 112.258,258.692 89.5,251.5C 86.0009,248.754 82.0009,247.087 77.5,246.5C 67.1586,242.919 58.9919,236.586 53,227.5C 52.245,224.697 52.5783,222.03 54,219.5C 56.3031,217.607 58.4698,215.607 60.5,213.5C 54.3257,212.166 52.1591,208.499 54,202.5C 57.8651,198.751 60.6984,194.418 62.5,189.5C 65.2043,185.37 66.5377,180.703 66.5,175.5C 66.5,175.167 66.5,174.833 66.5,174.5C 68.2949,170.48 69.4616,166.147 70,161.5C 70.8007,158.633 70.6341,155.966 69.5,153.5C 68.8333,153.5 68.5,153.167 68.5,152.5C 68.1667,151.833 67.8333,151.167 67.5,150.5C 67.8417,149.662 68.5084,149.328 69.5,149.5C 71.1436,149.19 72.1436,148.19 72.5,146.5C 73.2341,145.292 73.5674,143.959 73.5,142.5C 78.6942,124.641 87.6942,108.974 100.5,95.5C 102.027,95.573 103.027,94.9063 103.5,93.5C 106.431,91.9092 109.098,89.9092 111.5,87.5C 108.148,83.314 104.314,79.6474 100,76.5C 99.4092,75.5165 99.7425,74.8499 101,74.5C 102.138,74.9891 103.305,75.3225 104.5,75.5C 108.297,78.489 111.797,81.8224 115,85.5C 117.659,83.7535 120.492,82.4202 123.5,81.5C 134.016,77.7173 144.682,74.2173 155.5,71C 167.708,68.4715 180.041,66.9715 192.5,66.5C 193.933,63.667 194.6,60.667 194.5,57.5C 197.012,53.1338 199.012,48.4671 200.5,43.5 Z"/></g>
<g><path style="opacity:1" fill="#ebecf3" d="M 155.5,318.5 C 154.791,319.404 153.791,319.737 152.5,319.5C 152.5,321.167 152.5,322.833 152.5,324.5C 136.758,321.576 134.092,326.576 144.5,339.5C 141.795,340.204 140.129,341.871 139.5,344.5C 136.053,342.603 132.72,340.437 129.5,338C 138.59,339.649 139.59,337.649 132.5,332C 126.463,328.877 120.13,326.543 113.5,325C 112.549,324.282 112.383,323.449 113,322.5C 126.426,313.46 140.592,312.127 155.5,318.5 Z"/></g>
<g><path style="opacity:1" fill="#bdc2dd" d="M 179.5,300.5 C 176.719,291.117 175.719,281.45 176.5,271.5C 177.209,270.596 178.209,270.263 179.5,270.5C 179.833,270.5 180.167,270.5 180.5,270.5C 180.086,279.582 180.586,288.582 182,297.5C 182.347,299.18 183.347,300.18 185,300.5C 187.154,299.68 188.654,298.18 189.5,296C 190.5,295.333 191.5,295.333 192.5,296C 193.935,304.203 197.268,311.536 202.5,318C 204.5,318.667 206.5,318.667 208.5,318C 210.652,314.849 212.652,311.682 214.5,308.5C 217.184,314.022 220.517,319.189 224.5,324C 232.048,326.638 235.382,323.805 234.5,315.5C 234.32,310.634 233.32,305.967 231.5,301.5C 233.783,301.608 235.783,302.441 237.5,304C 240.099,304.769 242.599,304.602 245,303.5C 247.031,294.073 245.197,285.407 239.5,277.5C 239.833,276.5 240.5,275.833 241.5,275.5C 248.434,277.507 250.267,275.174 247,268.5C 242.646,261.647 237.146,255.98 230.5,251.5C 230.5,251.167 230.5,250.833 230.5,250.5C 232.137,249.782 233.803,249.616 235.5,250C 242.935,256.397 248.268,264.063 251.5,273C 251.802,277.368 249.802,280.035 245.5,281C 248.82,287.446 250.32,294.28 250,301.5C 247.93,307.535 243.93,309.535 238,307.5C 238.933,313.189 238.6,318.855 237,324.5C 232.8,328.714 227.966,329.548 222.5,327C 219.642,323.642 216.975,320.142 214.5,316.5C 211.844,321.329 207.844,323.162 202.5,322C 196.296,316.442 191.963,309.609 189.5,301.5C 185.852,304.304 182.518,303.97 179.5,300.5 Z"/></g>
<g><path style="opacity:1" fill="#a3a7c2" d="M 169.5,271.5 C 171.833,271.5 174.167,271.5 176.5,271.5C 175.719,281.45 176.719,291.117 179.5,300.5C 177.728,322.739 179.895,344.739 186,366.5C 193.744,381.803 206.244,390.303 223.5,392C 216.482,392.565 209.482,392.399 202.5,391.5C 189.315,387.816 180.482,379.483 176,366.5C 172.376,351.39 170.376,336.057 170,320.5C 169.5,304.17 169.333,287.837 169.5,271.5 Z"/></g>
<g><path style="opacity:1" fill="#9195b2" d="M 72.5,265.5 C 81.9703,265.474 85.8036,270.141 84,279.5C 80.1857,289.814 73.0191,293.981 62.5,292C 58.0357,287.372 58.7024,283.872 64.5,281.5C 63.5197,280.019 62.353,278.685 61,277.5C 59.5792,273.518 60.7459,270.852 64.5,269.5C 66.7617,270.467 69.095,271.134 71.5,271.5C 71.3253,269.379 71.6586,267.379 72.5,265.5 Z"/></g>
<g><path style="opacity:1" fill="#9296b3" d="M 164.5,260.5 C 165.166,265.823 165.499,271.323 165.5,277C 165.475,282.911 164.808,288.578 163.5,294C 139.05,303.069 114.384,303.735 89.5,296C 86.307,294.946 83.307,293.446 80.5,291.5C 83.4234,287.973 86.09,284.306 88.5,280.5C 116.636,284.429 141.97,277.762 164.5,260.5 Z"/></g>
<g><path style="opacity:1" fill="#8c90af" d="M 179.5,256.5 C 179.5,261.167 179.5,265.833 179.5,270.5C 178.209,270.263 177.209,270.596 176.5,271.5C 174.167,271.5 171.833,271.5 169.5,271.5C 169.5,266.833 169.5,262.167 169.5,257.5C 172.86,257.384 176.193,257.051 179.5,256.5 Z"/></g>
<g><path style="opacity:1" fill="#9093ad" d="M 169.5,254.5 C 162.395,256.012 155.062,256.679 147.5,256.5C 142.322,256.499 137.322,256.166 132.5,255.5C 144.852,255.649 157.185,255.315 169.5,254.5 Z"/></g>
<g><path style="opacity:1" fill="#eff0f6" d="M 230.5,251.5 C 237.146,255.98 242.646,261.647 247,268.5C 250.267,275.174 248.434,277.507 241.5,275.5C 240.5,275.833 239.833,276.5 239.5,277.5C 245.197,285.407 247.031,294.073 245,303.5C 242.599,304.602 240.099,304.769 237.5,304C 235.783,302.441 233.783,301.608 231.5,301.5C 233.32,305.967 234.32,310.634 234.5,315.5C 235.382,323.805 232.048,326.638 224.5,324C 220.517,319.189 217.184,314.022 214.5,308.5C 212.652,311.682 210.652,314.849 208.5,318C 206.5,318.667 204.5,318.667 202.5,318C 197.268,311.536 193.935,304.203 192.5,296C 191.5,295.333 190.5,295.333 189.5,296C 188.654,298.18 187.154,299.68 185,300.5C 183.347,300.18 182.347,299.18 182,297.5C 180.586,288.582 180.086,279.582 180.5,270.5C 190.389,270.371 200.056,268.871 209.5,266C 216.931,261.726 223.931,256.893 230.5,251.5 Z"/></g>
<g><path style="opacity:1" fill="#8f93b0" d="M 249.5,248.5 C 252.652,247.761 255.985,247.761 259.5,248.5C 259.665,251.85 259.498,255.183 259,258.5C 256.048,254.901 252.882,251.567 249.5,248.5 Z"/></g>
<g><path style="opacity:1" fill="#9397b4" d="M 202.5,391.5 C 209.482,392.399 216.482,392.565 223.5,392C 206.244,390.303 193.744,381.803 186,366.5C 179.895,344.739 177.728,322.739 179.5,300.5C 182.518,303.97 185.852,304.304 189.5,301.5C 191.963,309.609 196.296,316.442 202.5,322C 207.844,323.162 211.844,321.329 214.5,316.5C 216.975,320.142 219.642,323.642 222.5,327C 227.966,329.548 232.8,328.714 237,324.5C 238.6,318.855 238.933,313.189 238,307.5C 243.93,309.535 247.93,307.535 250,301.5C 250.32,294.28 248.82,287.446 245.5,281C 249.802,280.035 251.802,277.368 251.5,273C 248.268,264.063 242.935,256.397 235.5,250C 233.803,249.616 232.137,249.782 230.5,250.5C 229.388,247.054 227.055,245.054 223.5,244.5C 227.836,242.176 232.502,240.676 237.5,240C 244.638,247.807 251.805,255.641 259,263.5C 259.833,304.171 259.667,344.837 258.5,385.5C 240.324,394.039 221.658,396.039 202.5,391.5 Z"/></g>
<g><path style="opacity:1" fill="#aeb0c4" d="M 223.5,244.5 C 227.055,245.054 229.388,247.054 230.5,250.5C 230.5,250.833 230.5,251.167 230.5,251.5C 223.931,256.893 216.931,261.726 209.5,266C 200.056,268.871 190.389,270.371 180.5,270.5C 180.167,270.5 179.833,270.5 179.5,270.5C 179.5,265.833 179.5,261.167 179.5,256.5C 194.45,253.701 209.117,249.701 223.5,244.5 Z"/></g>
<g><path style="opacity:1" fill="#babfdb" d="M 155.5,318.5 C 157.368,319.263 159.035,320.263 160.5,321.5C 159.282,322.161 157.949,322.828 156.5,323.5C 158.885,325.884 160.885,328.55 162.5,331.5C 161.833,331.833 161.167,332.167 160.5,332.5C 154.415,329.694 148.082,327.694 141.5,326.5C 144.211,333.4 148.377,339.4 154,344.5C 154.483,345.448 154.649,346.448 154.5,347.5C 150.752,346.793 147.086,345.793 143.5,344.5C 143.629,346.216 143.962,347.883 144.5,349.5C 142.5,348.167 140.833,346.5 139.5,344.5C 140.129,341.871 141.795,340.204 144.5,339.5C 134.092,326.576 136.758,321.576 152.5,324.5C 152.5,322.833 152.5,321.167 152.5,319.5C 153.791,319.737 154.791,319.404 155.5,318.5 Z"/></g>
<g><path style="opacity:1" fill="#9195b3" d="M 160.5,321.5 C 162.797,323.294 164.963,325.294 167,327.5C 167.244,338.961 168.577,350.295 171,361.5C 172.987,368.782 175.487,375.782 178.5,382.5C 175.009,382.091 171.675,381.091 168.5,379.5C 166.197,379.876 165.863,380.876 167.5,382.5C 165.326,382.25 163.659,381.25 162.5,379.5C 163.496,379.414 164.329,379.748 165,380.5C 165.374,379.584 165.874,378.75 166.5,378C 158.667,371.5 150.833,365 143,358.5C 142.312,357.668 142.479,357.002 143.5,356.5C 145.173,358.086 147.173,358.753 149.5,358.5C 148.307,355.289 146.641,352.289 144.5,349.5C 143.962,347.883 143.629,346.216 143.5,344.5C 147.086,345.793 150.752,346.793 154.5,347.5C 154.649,346.448 154.483,345.448 154,344.5C 148.377,339.4 144.211,333.4 141.5,326.5C 148.082,327.694 154.415,329.694 160.5,332.5C 161.167,332.167 161.833,331.833 162.5,331.5C 160.885,328.55 158.885,325.884 156.5,323.5C 157.949,322.828 159.282,322.161 160.5,321.5 Z"/></g>
<g><path style="opacity:0.878" fill="#a9acbe" d="M 108.5,325.5 C 112.542,327.177 116.542,328.844 120.5,330.5C 115.733,330.364 111.733,328.697 108.5,325.5 Z"/></g>
<g><path style="opacity:0.953" fill="#a3a6b8" d="M 145.5,365.5 C 147.749,366.08 149.415,367.413 150.5,369.5C 148.251,368.92 146.585,367.587 145.5,365.5 Z"/></g>
<g><path style="opacity:0.863" fill="#aeb0c0" d="M 152.5,371.5 C 154.749,372.08 156.415,373.413 157.5,375.5C 155.251,374.92 153.585,373.587 152.5,371.5 Z"/></g>
<g><path style="opacity:0.396" fill="#b4b6c5" d="M 157.5,375.5 C 159.749,376.08 161.415,377.413 162.5,379.5C 160.251,378.92 158.585,377.587 157.5,375.5 Z"/></g>
<g><path style="opacity:1" fill="#9296b3" d="M 182.5,384.5 C 191.285,392.389 201.618,396.722 213.5,397.5C 211.207,411.59 208.373,425.59 205,439.5C 200.64,436.237 195.807,433.904 190.5,432.5C 187.446,416.562 184.779,400.562 182.5,384.5 Z"/></g>
<g><path style="opacity:1" fill="#8a8eab" d="M 252.5,421.5 C 250.215,414.087 248.549,406.42 247.5,398.5C 248.5,398.5 249.5,398.5 250.5,398.5C 250.338,396.473 250.505,394.473 251,392.5C 253.443,391.407 255.943,390.407 258.5,389.5C 259.666,404.489 259.833,419.489 259,434.5C 257.284,428.252 255.95,421.919 255,415.5C 254.586,415.043 254.086,414.709 253.5,414.5C 252.526,416.743 252.192,419.076 252.5,421.5 Z"/></g>
<g><path style="opacity:0.182" fill="#dddee5" d="M 226.5,397.5 C 223.61,398.245 220.61,398.912 217.5,399.5C 219.988,397.612 222.988,396.945 226.5,397.5 Z"/></g>
<g><path style="opacity:0.357" fill="#bfc1ce" d="M 182.5,410.5 C 184.322,417.251 185.322,424.251 185.5,431.5C 184.209,431.737 183.209,431.404 182.5,430.5C 183.649,430.209 184.316,429.376 184.5,428C 183.463,422.204 182.796,416.371 182.5,410.5 Z"/></g>
<g><path style="opacity:1" fill="#9195b2" d="M 165.5,433.5 C 178.168,432.888 190.168,435.388 201.5,441C 202.357,441.689 203.023,442.522 203.5,443.5C 189.512,444.666 175.512,444.833 161.5,444C 159.439,439.186 160.772,435.686 165.5,433.5 Z"/></g>
<g><path style="opacity:0.188" fill="#cdced8" d="M 213.5,419.5 C 212.785,426.411 211.451,433.077 209.5,439.5C 209.959,432.54 211.292,425.873 213.5,419.5 Z"/></g>
<g><path style="opacity:0.957" fill="#a8abbc" d="M 159.5,433.5 C 156.841,438.135 156.841,442.802 159.5,447.5C 155.544,444.324 154.711,440.324 157,435.5C 157.708,434.619 158.542,433.953 159.5,433.5 Z"/></g>
<g><path style="opacity:0.912" fill="#a1a3b6" d="M 159.5,447.5 C 175.5,447.5 191.5,447.5 207.5,447.5C 200.5,448.167 193.5,448.833 186.5,449.5C 186.167,449.5 185.833,449.5 185.5,449.5C 185.167,448.167 184.833,448.167 184.5,449.5C 178.5,449.5 172.5,449.5 166.5,449.5C 164.167,448.833 161.833,448.167 159.5,447.5 Z"/></g>
</svg>
