<?xml version="1.0" encoding="UTF-8"?>
<!DOCTYPE svg PUBLIC "-//W3C//DTD SVG 1.1//EN" "http://www.w3.org/Graphics/SVG/1.1/DTD/svg11.dtd">
<svg xmlns="http://www.w3.org/2000/svg" version="1.1" width="512px" height="512px" style="shape-rendering:geometricPrecision; text-rendering:geometricPrecision; image-rendering:optimizeQuality; fill-rule:evenodd; clip-rule:evenodd" xmlns:xlink="http://www.w3.org/1999/xlink">
<g><path style="opacity:0.943" fill="#53587a" d="M 303.5,304.5 C 293.5,304.5 283.5,304.5 273.5,304.5C 256.188,303.694 239.188,301.027 222.5,296.5C 219.574,295.132 216.574,294.299 213.5,294C 199.159,325.02 187.993,357.187 180,390.5C 176.537,418.229 188.204,436.229 215,444.5C 217.417,443.114 218.417,441.114 218,438.5C 208.272,416.806 199.438,394.806 191.5,372.5C 194.05,372.561 195.55,373.894 196,376.5C 203.953,397.072 212.453,417.405 221.5,437.5C 225.048,435.559 228.714,433.893 232.5,432.5C 233.647,430.235 233.814,427.902 233,425.5C 228.15,402.413 222.983,379.413 217.5,356.5C 217.863,355.817 218.196,355.15 218.5,354.5C 219.167,354.5 219.833,354.5 220.5,354.5C 221.946,357.254 222.946,360.254 223.5,363.5C 223.366,365.292 223.699,366.958 224.5,368.5C 229.048,389.788 233.381,411.121 237.5,432.5C 244.107,432.935 248.607,436.268 251,442.5C 253.637,436.603 258.137,433.27 264.5,432.5C 269.783,406.804 275.283,381.137 281,355.5C 282.011,354.663 283.178,354.33 284.5,354.5C 279.872,378.599 274.705,402.599 269,426.5C 268.242,428.769 268.409,430.936 269.5,433C 273.368,434.011 277.034,435.511 280.5,437.5C 280.833,437.167 281.167,436.833 281.5,436.5C 290.552,414.5 299.885,392.666 309.5,371C 302.516,348.879 294.849,327.045 286.5,305.5C 287.833,305.5 289.167,305.5 290.5,305.5C 301.759,332.778 310.926,360.778 318,389.5C 319.107,395.787 319.607,402.12 319.5,408.5C 332.337,411.89 345.004,415.89 357.5,420.5C 358.257,414.486 359.091,408.486 360,402.5C 364.283,392.457 370.783,390.457 379.5,396.5C 380.022,397.607 380.355,398.774 380.5,400C 378.31,415.284 375.477,430.451 372,445.5C 344.233,447.313 316.399,448.646 288.5,449.5C 289.252,460.759 284.252,465.092 273.5,462.5C 264.521,468.014 258.521,465.681 255.5,455.5C 252.5,452.833 249.5,452.833 246.5,455.5C 243.783,465.939 237.783,468.272 228.5,462.5C 217.849,464.35 213.182,459.85 214.5,449C 188.815,448.372 163.148,447.372 137.5,446C 133.856,430.781 130.856,415.448 128.5,400C 132.809,391.633 138.642,390.467 146,396.5C 148.11,399.492 149.443,402.825 150,406.5C 150.172,411.202 150.672,415.868 151.5,420.5C 159.934,417.966 168.267,415.133 176.5,412C 175.663,410.989 175.33,409.822 175.5,408.5C 165.476,407.314 157.976,402.314 153,393.5C 148.609,383.659 144.609,373.659 141,363.5C 140.333,360.5 140.333,357.5 141,354.5C 142.11,352.963 143.61,352.297 145.5,352.5C 144.14,345.95 141.807,339.783 138.5,334C 139.094,331.47 140.428,329.47 142.5,328C 139.766,323.259 136.266,319.093 132,315.5C 129.792,308.689 132.459,305.689 140,306.5C 167.696,308.487 183.363,323.154 187,350.5C 193.539,330.928 201.039,311.761 209.5,293C 177.582,282.976 151.082,265.143 130,239.5C 125.017,232.701 121.517,225.201 119.5,217C 119.795,214.077 121.129,211.743 123.5,210C 126.774,208.798 130.107,207.798 133.5,207C 129.142,204.135 127.809,200.302 129.5,195.5C 137.329,191.495 144.163,186.162 150,179.5C 155.131,171.404 160.631,163.571 166.5,156C 159.923,143.266 157.756,129.766 160,115.5C 163.768,89.1598 174.268,65.9931 191.5,46C 193.971,45.2937 196.305,45.627 198.5,47C 216.216,64.7396 229.05,85.573 237,109.5C 264.763,108.35 291.429,113.35 317,124.5C 331.667,106.583 349.167,92.0829 369.5,81C 373.307,78.6698 377.307,78.1698 381.5,79.5C 386.672,90.1795 389.506,101.513 390,113.5C 391.944,132.609 389.944,151.276 384,169.5C 379.81,177.897 374.643,185.563 368.5,192.5C 370.723,203.785 373.889,214.785 378,225.5C 381.277,231.926 385.111,237.926 389.5,243.5C 387.895,247.6 384.895,250.1 380.5,251C 385.016,253.153 388.516,256.32 391,260.5C 391.667,262.167 391.667,263.833 391,265.5C 385.274,274.28 377.774,281.113 368.5,286C 348.202,296.991 326.535,303.158 303.5,304.5 Z"/></g>
<g><path style="opacity:1" fill="#a3a7c2" d="M 374.5,252.5 C 380.038,254.591 384.371,258.091 387.5,263C 383.632,269.701 378.299,274.868 371.5,278.5C 371.062,278.565 370.728,278.399 370.5,278C 374.663,275.179 376.163,271.345 375,266.5C 371.054,262.555 366.554,259.389 361.5,257C 366.022,255.955 370.356,254.455 374.5,252.5 Z"/></g>
<g><path style="opacity:1" fill="#eeeff5" d="M 344.5,291.5 C 329.187,297.48 313.187,300.647 296.5,301C 251.985,302.788 210.318,292.788 171.5,271C 165.961,267.402 160.628,263.569 155.5,259.5C 153.651,253.295 153.151,246.962 154,240.5C 156.919,234.975 161.419,233.142 167.5,235C 176.834,239.834 186.5,243.834 196.5,247C 212.598,248.523 225.765,243.023 236,230.5C 241.125,223.707 246.625,217.207 252.5,211C 259.01,205.725 264.51,206.558 269,213.5C 273.61,225.331 278.61,236.997 284,248.5C 290.078,258.573 298.912,264.74 310.5,267C 321.836,267.074 333.169,267.074 344.5,267C 350.777,269.389 352.943,273.889 351,280.5C 349.326,284.524 347.159,288.191 344.5,291.5 Z"/></g>
<g><path style="opacity:1" fill="#0e0b0b" d="M 225.5,247.5 C 233.63,250.936 241.963,254.103 250.5,257C 262.001,258.08 273.334,257.247 284.5,254.5C 284.004,267.993 277.337,276.827 264.5,281C 247.162,284.252 235.329,277.752 229,261.5C 227.516,256.899 226.35,252.232 225.5,247.5 Z"/></g>
<g><path style="opacity:1" fill="#cc1842" d="M 259.5,267.5 C 262.157,268.392 264.657,269.726 267,271.5C 269.058,270.888 270.891,269.888 272.5,268.5C 274.101,269.035 274.601,270.035 274,271.5C 267.516,276.938 260.016,279.272 251.5,278.5C 251.866,273.137 254.533,269.471 259.5,267.5 Z"/></g>
<g><path style="opacity:1" fill="#ededed" d="M 264.5,262.5 C 272.119,260.6 273.119,262.266 267.5,267.5C 266.065,266.053 265.065,264.386 264.5,262.5 Z"/></g>
<g><path style="opacity:1" fill="#670d1d" d="M 230.5,253.5 C 232.017,253.511 233.184,254.177 234,255.5C 235.716,268.541 240.549,269.875 248.5,259.5C 252.661,261.185 256.994,261.852 261.5,261.5C 261.5,262.5 261.5,263.5 261.5,264.5C 258.072,264.547 255.072,265.713 252.5,268C 250.306,270.695 248.306,273.528 246.5,276.5C 237.284,271.605 231.951,263.938 230.5,253.5 Z"/></g>
<g><path style="opacity:1" fill="#630c1c" d="M 276.5,259.5 C 277.978,259.238 279.311,259.571 280.5,260.5C 279.977,262.933 278.81,264.933 277,266.5C 275.72,266.387 274.887,265.72 274.5,264.5C 275.456,262.925 276.123,261.258 276.5,259.5 Z"/></g>
<g><path style="opacity:1" fill="#e4e4e4" d="M 238.5,257.5 C 244.55,258.058 245.05,260.058 240,263.5C 238.872,261.655 238.372,259.655 238.5,257.5 Z"/></g>
<g><path style="opacity:1" fill="#bcc1dd" d="M 350.5,289.5 C 348.703,290.73 346.703,291.396 344.5,291.5C 347.159,288.191 349.326,284.524 351,280.5C 352.943,273.889 350.777,269.389 344.5,267C 333.169,267.074 321.836,267.074 310.5,267C 298.912,264.74 290.078,258.573 284,248.5C 278.61,236.997 273.61,225.331 269,213.5C 264.51,206.558 259.01,205.725 252.5,211C 246.625,217.207 241.125,223.707 236,230.5C 225.765,243.023 212.598,248.523 196.5,247C 186.5,243.834 176.834,239.834 167.5,235C 161.419,233.142 156.919,234.975 154,240.5C 153.151,246.962 153.651,253.295 155.5,259.5C 153.5,258.167 151.833,256.5 150.5,254.5C 148.764,248.297 149.264,242.297 152,236.5C 156.491,231.741 161.991,230.241 168.5,232C 177.396,235.949 186.396,239.616 195.5,243C 208.191,245.102 219.191,241.769 228.5,233C 235.833,224.667 243.167,216.333 250.5,208C 258.98,201.219 266.147,202.386 272,211.5C 276.725,223.283 281.725,234.949 287,246.5C 292.144,254.645 299.311,260.145 308.5,263C 318.009,263.595 327.509,263.428 337,262.5C 355.275,264.383 359.775,273.383 350.5,289.5 Z"/></g>
<g><path style="opacity:1" fill="#9296b3" d="M 214.5,119.5 C 214.369,120.239 214.536,120.906 215,121.5C 245.198,117.004 274.365,120.837 302.5,133C 321.783,142.283 335.616,156.783 344,176.5C 351.182,192.559 356.516,209.225 360,226.5C 362.816,234.137 366.649,241.137 371.5,247.5C 371.31,249.959 372.31,251.626 374.5,252.5C 370.356,254.455 366.022,255.955 361.5,257C 366.554,259.389 371.054,262.555 375,266.5C 376.163,271.345 374.663,275.179 370.5,278C 370.728,278.399 371.062,278.565 371.5,278.5C 365.265,283.452 358.265,287.119 350.5,289.5C 359.775,273.383 355.275,264.383 337,262.5C 327.509,263.428 318.009,263.595 308.5,263C 299.311,260.145 292.144,254.645 287,246.5C 281.725,234.949 276.725,223.283 272,211.5C 266.147,202.386 258.98,201.219 250.5,208C 243.167,216.333 235.833,224.667 228.5,233C 219.191,241.769 208.191,245.102 195.5,243C 186.396,239.616 177.396,235.949 168.5,232C 161.991,230.241 156.491,231.741 152,236.5C 149.264,242.297 148.764,248.297 150.5,254.5C 147.25,252.757 144.416,250.423 142,247.5C 133.585,238.912 127.418,228.912 123.5,217.5C 123.931,215.234 125.264,213.734 127.5,213C 132.35,211.268 137.35,210.268 142.5,210C 143.337,208.989 143.67,207.822 143.5,206.5C 139.203,205.934 135.703,203.934 133,200.5C 132.251,199.365 132.417,198.365 133.5,197.5C 140.618,194.18 146.785,189.514 152,183.5C 163.228,165.255 176.728,148.755 192.5,134C 199.348,128.411 206.681,123.577 214.5,119.5 Z"/></g>
<g><path style="opacity:1" fill="#080809" d="M 245.5,228.5 C 252.619,228.862 259.619,230.028 266.5,232C 273.019,236.222 272.686,240.222 265.5,244C 261.807,246.526 257.807,247.86 253.5,248C 249.248,244.419 245.748,240.252 243,235.5C 242.333,234.167 242.333,232.833 243,231.5C 244.045,230.627 244.878,229.627 245.5,228.5 Z"/></g>
<g><path style="opacity:1" fill="#0b0b0b" d="M 313.5,193.5 C 333.44,192.044 346.607,200.711 353,219.5C 354.149,226.76 353.316,233.76 350.5,240.5C 351.98,242.544 351.48,243.878 349,244.5C 334.153,237.643 318.986,236.81 303.5,242C 299.104,243.87 294.771,245.703 290.5,247.5C 290.421,246.07 290.754,244.736 291.5,243.5C 282.499,219.512 289.832,202.845 313.5,193.5 Z"/></g>
<g><path style="opacity:1" fill="#f8f8f8" d="M 312.5,197.5 C 330.401,194.859 342.568,201.859 349,218.5C 349.667,223.5 349.667,228.5 349,233.5C 348.885,236.008 347.885,238.008 346,239.5C 340.266,237.62 334.433,236.12 328.5,235C 331.171,231.472 331.838,227.639 330.5,223.5C 327.807,225.27 324.807,225.937 321.5,225.5C 321.489,221.19 323.323,217.857 327,215.5C 325.983,211.815 323.483,209.315 319.5,208C 308.473,204.762 300.306,208.262 295,218.5C 292.651,226.296 294.151,233.296 299.5,239.5C 296.673,242.381 294.506,242.048 293,238.5C 287.336,218.975 293.836,205.308 312.5,197.5 Z"/></g>
<g><path style="opacity:1" fill="#080808" d="M 192.5,172.5 C 220.519,171.353 234.019,184.687 233,212.5C 231.209,219.953 227.376,226.12 221.5,231C 222.821,232.545 222.488,233.711 220.5,234.5C 205.531,218.51 187.198,210.51 165.5,210.5C 166.186,191.754 175.186,179.087 192.5,172.5 Z"/></g>
<g><path style="opacity:1" fill="#f4f4f4" d="M 194.5,175.5 C 217.121,175.04 228.955,186.04 230,208.5C 228.939,216.625 225.272,223.291 219,228.5C 217.647,227.315 216.48,225.981 215.5,224.5C 223.384,220.393 226.718,214.06 225.5,205.5C 223.568,206.366 221.568,207.033 219.5,207.5C 217.734,207.566 216.734,206.732 216.5,205C 218.055,201.439 220.388,198.439 223.5,196C 217.71,189.071 210.376,186.737 201.5,189C 192.693,193.445 188.693,200.612 189.5,210.5C 183.21,209.459 176.877,208.792 170.5,208.5C 170.87,191.816 178.87,180.816 194.5,175.5 Z"/></g>
<g><path style="opacity:1" fill="#434867" d="M 284.5,170.5 C 293.595,168.802 301.095,171.469 307,178.5C 306.999,184.157 303.999,186.824 298,186.5C 290.177,186.354 284.677,182.854 281.5,176C 281.863,173.808 282.863,171.974 284.5,170.5 Z"/></g>
<g><path style="opacity:1" fill="#606693" d="M 286.5,173.5 C 293.43,172.972 299.097,175.305 303.5,180.5C 297.145,183.619 291.312,182.619 286,177.5C 285.421,176.072 285.588,174.738 286.5,173.5 Z"/></g>
<g><path style="opacity:1" fill="#424766" d="M 229.5,160.5 C 237.81,159.548 244.977,161.882 251,167.5C 252.243,174.096 249.409,177.096 242.5,176.5C 237.031,176.015 232.198,174.015 228,170.5C 225.729,166.697 226.229,163.363 229.5,160.5 Z"/></g>
<g><path style="opacity:1" fill="#606593" d="M 231.5,163.5 C 238.297,163.315 243.964,165.649 248.5,170.5C 241.129,174.08 234.796,172.58 229.5,166C 230.381,165.292 231.047,164.458 231.5,163.5 Z"/></g>
<g><path style="opacity:1" fill="#a3a7c2" d="M 371.5,247.5 C 366.649,241.137 362.816,234.137 360,226.5C 356.516,209.225 351.182,192.559 344,176.5C 335.616,156.783 321.783,142.283 302.5,133C 274.365,120.837 245.198,117.004 215,121.5C 214.536,120.906 214.369,120.239 214.5,119.5C 225.753,115.352 237.419,113.352 249.5,113.5C 274.034,113.973 297.367,119.473 319.5,130C 328.55,135.051 336.383,141.551 343,149.5C 352.109,162.384 359.109,176.384 364,191.5C 366.665,206.498 371.332,220.831 378,234.5C 387.706,244.029 385.539,248.362 371.5,247.5 Z"/></g>
<g><path style="opacity:1" fill="#eeeff6" d="M 363.5,180.5 C 356.889,162.25 346.555,146.583 332.5,133.5C 341.925,119.744 353.925,108.744 368.5,100.5C 368.823,108.85 366.49,116.517 361.5,123.5C 361.833,124.5 362.5,125.167 363.5,125.5C 366.4,123.049 369.734,121.715 373.5,121.5C 372.654,131.526 370.32,141.192 366.5,150.5C 369.5,149.833 372.5,149.167 375.5,148.5C 374.832,160.513 370.832,171.18 363.5,180.5 Z"/></g>
<g><path style="opacity:1" fill="#bcc1dd" d="M 364.5,183.5 C 364.443,182.391 364.11,181.391 363.5,180.5C 370.832,171.18 374.832,160.513 375.5,148.5C 372.5,149.167 369.5,149.833 366.5,150.5C 370.32,141.192 372.654,131.526 373.5,121.5C 369.734,121.715 366.4,123.049 363.5,125.5C 362.5,125.167 361.833,124.5 361.5,123.5C 366.49,116.517 368.823,108.85 368.5,100.5C 353.925,108.744 341.925,119.744 332.5,133.5C 330.973,133.573 329.973,132.906 329.5,131.5C 340.638,115.929 354.638,103.596 371.5,94.5C 373.024,95.5271 373.691,97.0271 373.5,99C 373.051,105.676 371.384,112.01 368.5,118C 371.146,118.497 373.813,118.664 376.5,118.5C 376.718,127.741 375.385,136.741 372.5,145.5C 374.5,145.5 376.5,145.5 378.5,145.5C 378.789,159.133 374.955,171.467 367,182.5C 366.329,183.252 365.496,183.586 364.5,183.5 Z"/></g>
<g><path style="opacity:1" fill="#9296b3" d="M 364.5,183.5 C 365.496,183.586 366.329,183.252 367,182.5C 374.955,171.467 378.789,159.133 378.5,145.5C 376.5,145.5 374.5,145.5 372.5,145.5C 375.385,136.741 376.718,127.741 376.5,118.5C 373.813,118.664 371.146,118.497 368.5,118C 371.384,112.01 373.051,105.676 373.5,99C 373.691,97.0271 373.024,95.5271 371.5,94.5C 354.638,103.596 340.638,115.929 329.5,131.5C 326.278,130.396 323.611,128.562 321.5,126C 336.532,106.799 355.198,92.2993 377.5,82.5C 378.167,82.8333 378.833,83.1667 379.5,83.5C 387.693,109.258 388.526,135.258 382,161.5C 379.35,171.482 374.183,179.816 366.5,186.5C 365.575,185.643 364.908,184.643 364.5,183.5 Z"/></g>
<g><path style="opacity:1" fill="#eeeff5" d="M 219.5,113.5 C 212.484,116.176 205.818,119.676 199.5,124C 190.699,130.967 182.366,138.467 174.5,146.5C 172.083,141.391 171.083,135.891 171.5,130C 171.417,124.39 172.083,118.89 173.5,113.5C 176.5,114.833 179.5,116.167 182.5,117.5C 182.05,107.725 182.716,98.0586 184.5,88.5C 188.718,89.7702 192.385,91.7702 195.5,94.5C 194.668,87.5138 194.501,80.5138 195,73.5C 195.29,71.9559 195.956,70.6226 197,69.5C 207.928,82.3545 215.428,97.0212 219.5,113.5 Z"/></g>
<g><path style="opacity:1" fill="#bcc1dc" d="M 222.5,113.5 C 221.5,113.5 220.5,113.5 219.5,113.5C 215.428,97.0212 207.928,82.3545 197,69.5C 195.956,70.6226 195.29,71.9559 195,73.5C 194.501,80.5138 194.668,87.5138 195.5,94.5C 192.385,91.7702 188.718,89.7702 184.5,88.5C 182.716,98.0586 182.05,107.725 182.5,117.5C 179.5,116.167 176.5,114.833 173.5,113.5C 172.083,118.89 171.417,124.39 171.5,130C 171.083,135.891 172.083,141.391 174.5,146.5C 173.833,147.5 173.167,148.5 172.5,149.5C 170.232,145.934 168.732,141.934 168,137.5C 166.968,128.278 167.968,119.278 171,110.5C 173.432,109.55 175.932,109.55 178.5,110.5C 177.917,102.236 179.084,94.2359 182,86.5C 185.073,84.1611 188.073,84.4944 191,87.5C 191.333,81.8333 191.667,76.1667 192,70.5C 192.516,67.7494 193.683,65.4161 195.5,63.5C 209.627,77.3199 218.627,93.9866 222.5,113.5 Z"/></g>
<g><path style="opacity:1" fill="#9296b3" d="M 222.5,113.5 C 218.627,93.9866 209.627,77.3199 195.5,63.5C 193.683,65.4161 192.516,67.7494 192,70.5C 191.667,76.1667 191.333,81.8333 191,87.5C 188.073,84.4944 185.073,84.1611 182,86.5C 179.084,94.2359 177.917,102.236 178.5,110.5C 175.932,109.55 173.432,109.55 171,110.5C 167.968,119.278 166.968,128.278 168,137.5C 168.732,141.934 170.232,145.934 172.5,149.5C 171.535,152.085 170.201,152.585 168.5,151C 163.273,137.218 162.107,123.051 165,108.5C 169.743,86.5583 179.243,67.0583 193.5,50C 194.167,49.3333 194.833,49.3333 195.5,50C 213.089,67.3458 225.422,87.8458 232.5,111.5C 229.012,111.54 225.679,112.207 222.5,113.5 Z"/></g>
<g><path style="opacity:1" fill="#b2b4c9" d="M 222.5,296.5 C 239.188,301.027 256.188,303.694 273.5,304.5C 275.744,308.56 277.411,312.893 278.5,317.5C 270.523,318.49 262.523,318.657 254.5,318C 241.951,316.324 229.617,313.824 217.5,310.5C 215.028,317.947 212.695,325.447 210.5,333C 210.052,335.952 211.219,337.785 214,338.5C 216.086,337.582 218.253,336.915 220.5,336.5C 220.5,342.5 220.5,348.5 220.5,354.5C 219.833,354.5 219.167,354.5 218.5,354.5C 216.577,350.971 215.911,346.971 216.5,342.5C 213.635,342.945 211.135,342.278 209,340.5C 207.466,336.289 207.133,331.956 208,327.5C 210.069,321.794 212.235,316.128 214.5,310.5C 215.991,309.756 217.491,309.09 219,308.5C 220.477,304.571 221.644,300.571 222.5,296.5 Z"/></g>
<g><path style="opacity:1" fill="#9195b2" d="M 222.5,296.5 C 221.644,300.571 220.477,304.571 219,308.5C 217.491,309.09 215.991,309.756 214.5,310.5C 212.235,316.128 210.069,321.794 208,327.5C 207.133,331.956 207.466,336.289 209,340.5C 211.135,342.278 213.635,342.945 216.5,342.5C 215.911,346.971 216.577,350.971 218.5,354.5C 218.196,355.15 217.863,355.817 217.5,356.5C 222.983,379.413 228.15,402.413 233,425.5C 233.814,427.902 233.647,430.235 232.5,432.5C 228.714,433.893 225.048,435.559 221.5,437.5C 212.453,417.405 203.953,397.072 196,376.5C 195.55,373.894 194.05,372.561 191.5,372.5C 199.438,394.806 208.272,416.806 218,438.5C 218.417,441.114 217.417,443.114 215,444.5C 188.204,436.229 176.537,418.229 180,390.5C 187.993,357.187 199.159,325.02 213.5,294C 216.574,294.299 219.574,295.132 222.5,296.5 Z"/></g>
<g><path style="opacity:1" fill="#eff0f6" d="M 278.5,317.5 C 278.833,317.5 279.167,317.5 279.5,317.5C 280.556,321.168 281.722,324.835 283,328.5C 283.667,331.5 283.667,334.5 283,337.5C 282.275,338.059 281.442,338.392 280.5,338.5C 278.238,337.533 275.905,336.866 273.5,336.5C 275.31,345.452 274.477,354.118 271,362.5C 265.465,365.504 261.298,364.004 258.5,358C 257.833,357.333 257.167,357.333 256.5,358C 256.071,363.965 254.904,369.798 253,375.5C 249.645,380.31 245.979,380.644 242,376.5C 239.245,370.499 237.745,364.165 237.5,357.5C 234.978,359.856 232.312,362.023 229.5,364C 227.455,364.49 225.455,364.323 223.5,363.5C 222.946,360.254 221.946,357.254 220.5,354.5C 220.5,348.5 220.5,342.5 220.5,336.5C 218.253,336.915 216.086,337.582 214,338.5C 211.219,337.785 210.052,335.952 210.5,333C 212.695,325.447 215.028,317.947 217.5,310.5C 229.617,313.824 241.951,316.324 254.5,318C 262.523,318.657 270.523,318.49 278.5,317.5 Z"/></g>
<g><path style="opacity:1" fill="#ecedf4" d="M 175.5,328.5 C 173.239,329.59 171.406,331.256 170,333.5C 166.864,329.017 162.697,326.85 157.5,327C 156.299,327.903 155.465,329.069 155,330.5C 154.501,334.486 154.334,338.486 154.5,342.5C 151.892,342.4 149.558,343.067 147.5,344.5C 146.317,341.297 144.984,338.13 143.5,335C 143.833,334.5 144.167,334 144.5,333.5C 145.845,334.347 146.845,335.513 147.5,337C 148.448,337.483 149.448,337.649 150.5,337.5C 148.506,327.856 143.673,319.856 136,313.5C 135.517,312.552 135.351,311.552 135.5,310.5C 151.913,310.046 165.246,316.046 175.5,328.5 Z"/></g>
<g><path style="opacity:1" fill="#bdc1dd" d="M 279.5,317.5 C 280.833,317.5 282.167,317.5 283.5,317.5C 283.826,320.311 284.659,322.978 286,325.5C 286.667,330.167 286.667,334.833 286,339.5C 283.847,342.124 281.013,343.124 277.5,342.5C 278.088,350.134 276.921,357.467 274,364.5C 269.697,369.424 265.03,369.758 260,365.5C 258.667,369.5 257.333,373.5 256,377.5C 251.282,384.452 245.948,385.118 240,379.5C 236.896,374.964 235.23,369.964 235,364.5C 232.087,367.373 228.587,368.706 224.5,368.5C 223.699,366.958 223.366,365.292 223.5,363.5C 225.455,364.323 227.455,364.49 229.5,364C 232.312,362.023 234.978,359.856 237.5,357.5C 237.745,364.165 239.245,370.499 242,376.5C 245.979,380.644 249.645,380.31 253,375.5C 254.904,369.798 256.071,363.965 256.5,358C 257.167,357.333 257.833,357.333 258.5,358C 261.298,364.004 265.465,365.504 271,362.5C 274.477,354.118 275.31,345.452 273.5,336.5C 275.905,336.866 278.238,337.533 280.5,338.5C 281.442,338.392 282.275,338.059 283,337.5C 283.667,334.5 283.667,331.5 283,328.5C 281.722,324.835 280.556,321.168 279.5,317.5 Z"/></g>
<g><path style="opacity:1" fill="#bcc1dc" d="M 175.5,328.5 C 177.341,330.849 178.674,333.515 179.5,336.5C 179.565,336.938 179.399,337.272 179,337.5C 178.059,335.939 176.892,334.605 175.5,333.5C 174.633,337.465 174.633,341.465 175.5,345.5C 174.325,345.719 173.325,345.386 172.5,344.5C 170.418,340.253 167.751,336.419 164.5,333C 162.783,331.441 160.783,330.608 158.5,330.5C 158.225,337.431 158.892,344.264 160.5,351C 160.167,352.167 159.833,353.333 159.5,354.5C 156.695,352.208 154.362,349.541 152.5,346.5C 151.065,347.947 150.065,349.614 149.5,351.5C 149.606,348.921 148.939,346.588 147.5,344.5C 149.558,343.067 151.892,342.4 154.5,342.5C 154.334,338.486 154.501,334.486 155,330.5C 155.465,329.069 156.299,327.903 157.5,327C 162.697,326.85 166.864,329.017 170,333.5C 171.406,331.256 173.239,329.59 175.5,328.5 Z"/></g>
<g><path style="opacity:1" fill="#9296b3" d="M 179.5,336.5 C 181.735,344.041 183.068,351.874 183.5,360C 181.384,370.912 178.884,381.745 176,392.5C 175.501,396.486 175.334,400.486 175.5,404.5C 166.227,402.405 159.394,397.071 155,388.5C 151.203,378.942 147.703,369.276 144.5,359.5C 145.425,357.151 146.425,357.317 147.5,360C 148.448,360.483 149.448,360.649 150.5,360.5C 150.736,357.391 150.403,354.391 149.5,351.5C 150.065,349.614 151.065,347.947 152.5,346.5C 154.362,349.541 156.695,352.208 159.5,354.5C 159.833,353.333 160.167,352.167 160.5,351C 158.892,344.264 158.225,337.431 158.5,330.5C 160.783,330.608 162.783,331.441 164.5,333C 167.751,336.419 170.418,340.253 172.5,344.5C 173.325,345.386 174.325,345.719 175.5,345.5C 174.633,341.465 174.633,337.465 175.5,333.5C 176.892,334.605 178.059,335.939 179,337.5C 179.399,337.272 179.565,336.938 179.5,336.5 Z"/></g>
<g><path style="opacity:1" fill="#9397b4" d="M 273.5,304.5 C 283.5,304.5 293.5,304.5 303.5,304.5C 299.366,305.485 295.032,305.818 290.5,305.5C 289.167,305.5 287.833,305.5 286.5,305.5C 294.849,327.045 302.516,348.879 309.5,371C 299.885,392.666 290.552,414.5 281.5,436.5C 281.167,436.833 280.833,437.167 280.5,437.5C 277.034,435.511 273.368,434.011 269.5,433C 268.409,430.936 268.242,428.769 269,426.5C 274.705,402.599 279.872,378.599 284.5,354.5C 283.178,354.33 282.011,354.663 281,355.5C 275.283,381.137 269.783,406.804 264.5,432.5C 258.137,433.27 253.637,436.603 251,442.5C 248.607,436.268 244.107,432.935 237.5,432.5C 233.381,411.121 229.048,389.788 224.5,368.5C 228.587,368.706 232.087,367.373 235,364.5C 235.23,369.964 236.896,374.964 240,379.5C 245.948,385.118 251.282,384.452 256,377.5C 257.333,373.5 258.667,369.5 260,365.5C 265.03,369.758 269.697,369.424 274,364.5C 276.921,357.467 278.088,350.134 277.5,342.5C 281.013,343.124 283.847,342.124 286,339.5C 286.667,334.833 286.667,330.167 286,325.5C 284.659,322.978 283.826,320.311 283.5,317.5C 282.167,317.5 280.833,317.5 279.5,317.5C 279.167,317.5 278.833,317.5 278.5,317.5C 277.411,312.893 275.744,308.56 273.5,304.5 Z"/></g>
<g><path style="opacity:1" fill="#a2a6c1" d="M 285.5,436.5 C 292.817,432.682 298.317,427.015 302,419.5C 305.53,410.41 306.364,401.077 304.5,391.5C 306.033,386.739 307.866,382.072 310,377.5C 320.253,398.97 316.753,417.803 299.5,434C 295.025,437.571 290.025,440.071 284.5,441.5C 284.366,439.708 284.699,438.042 285.5,436.5 Z"/></g>
<g><path style="opacity:1" fill="#9195b2" d="M 304.5,391.5 C 306.364,401.077 305.53,410.41 302,419.5C 298.317,427.015 292.817,432.682 285.5,436.5C 291.597,421.317 297.93,406.317 304.5,391.5 Z"/></g>
<g><path style="opacity:1" fill="#9195b2" d="M 134.5,397.5 C 141.382,396.545 145.216,399.545 146,406.5C 146.667,414.167 146.667,421.833 146,429.5C 145.409,433.882 143.909,437.882 141.5,441.5C 138.075,430.456 135.575,419.123 134,407.5C 133.253,404.076 133.42,400.743 134.5,397.5 Z"/></g>
<g><path style="opacity:1" fill="#9195b2" d="M 368.5,397.5 C 370.527,397.338 372.527,397.505 374.5,398C 375.624,398.839 376.291,400.006 376.5,401.5C 374.082,414.931 371.249,428.265 368,441.5C 365.709,438.975 364.376,435.975 364,432.5C 362.536,423.88 362.202,415.213 363,406.5C 363.837,402.843 365.67,399.843 368.5,397.5 Z"/></g>
<g><path style="opacity:1" fill="#9296b3" d="M 317.5,412.5 C 331.232,416.355 344.899,420.521 358.5,425C 359.349,430.883 361.016,436.55 363.5,442C 338.865,443.945 314.198,444.612 289.5,444C 303.634,437.703 312.967,427.203 317.5,412.5 Z"/></g>
<g><path style="opacity:1" fill="#9195b2" d="M 175.5,416.5 C 176.675,416.281 177.675,416.614 178.5,417.5C 183.611,429.778 192.278,438.611 204.5,444C 184.819,444.323 165.152,443.823 145.5,442.5C 148.297,436.947 149.964,431.114 150.5,425C 158.979,422.23 167.312,419.397 175.5,416.5 Z"/></g>
<g><path style="opacity:1" fill="#9195b2" d="M 230.5,436.5 C 234.182,436.335 237.848,436.501 241.5,437C 247.509,440.314 249.176,444.981 246.5,451C 244.527,451.495 242.527,451.662 240.5,451.5C 243.352,459.812 240.686,462.646 232.5,460C 231.624,458.414 230.624,456.914 229.5,455.5C 227.747,457.261 225.747,458.594 223.5,459.5C 221.617,459.124 220.117,458.124 219,456.5C 218.146,452.375 218.48,448.375 220,444.5C 222.94,440.963 226.44,438.297 230.5,436.5 Z"/></g>
<g><path style="opacity:1" fill="#9195b2" d="M 260.5,436.5 C 268.034,435.286 274.701,437.12 280.5,442C 284.861,446.693 285.528,451.86 282.5,457.5C 278.757,460.482 275.757,459.815 273.5,455.5C 271.96,457.387 270.293,459.22 268.5,461C 264.269,462.267 261.602,460.767 260.5,456.5C 261.388,454.845 261.888,453.178 262,451.5C 259.958,451.182 257.791,451.015 255.5,451C 253.163,446.941 253.663,443.108 257,439.5C 258.518,438.837 259.685,437.837 260.5,436.5 Z"/></g>
</svg>
