<svg version="1.1" id="Layer_1" xmlns="http://www.w3.org/2000/svg" xmlns:xlink="http://www.w3.org/1999/xlink" x="0px" y="0px"
	 width="100%" viewBox="0 0 1920 1080" enable-background="new 0 0 1920 1080" xml:space="preserve">
<path fill="#F4F7FE" opacity="1.000000" stroke="none" 
	d="
M1921.000000,1057.000000 
	C1921.000000,1064.998535 1921.000000,1072.997192 1921.000000,1080.997803 
	C1920.834717,1081.000000 1920.669556,1081.000000 1920.504272,1081.000000 
	C1280.784058,1081.000000 641.063904,1081.000000 1.000000,1081.000000 
	C1.000000,944.638794 1.000000,808.277344 1.468643,671.457947 
	C12.061341,671.333313 22.192719,672.088989 32.307953,671.913574 
	C54.559944,671.527710 76.820374,671.003906 99.045349,669.894958 
	C114.902435,669.103760 130.796890,667.912842 146.512360,665.731079 
	C165.005722,663.163696 183.380508,659.619812 201.705902,655.990356 
	C239.415588,648.521729 276.071838,637.334473 311.720306,623.026428 
	C337.182648,612.806702 362.432922,601.904907 385.827209,587.446472 
	C408.971039,573.142761 432.051971,558.636963 454.255402,542.939636 
	C477.158844,526.747437 497.924652,507.808441 517.108215,487.289917 
	C528.208679,475.417084 539.104248,463.320007 549.514832,450.842316 
	C565.843506,431.271393 579.531982,409.837616 591.261353,387.251892 
	C604.320129,362.106049 614.365479,335.786682 620.569214,308.022339 
	C625.608704,285.468445 628.378723,262.673431 628.905090,239.623413 
	C629.135925,229.512573 628.482300,219.370407 627.957031,209.256653 
	C627.458984,199.666092 627.447327,189.940613 625.738037,180.544373 
	C621.593933,157.763702 617.437683,134.922913 611.718811,112.506233 
	C603.947693,82.044624 592.898743,52.622986 579.567139,24.103333 
	C575.981140,16.431969 572.518982,8.702699 569.000000,1.000000 
	C1019.666687,1.000000 1470.333374,1.000000 1921.000000,1.000000 
	C1921.000000,16.426571 1921.000000,31.755331 1920.579102,47.563663 
	C1919.161743,47.980724 1918.137817,48.044910 1917.172729,47.837006 
	C1898.052979,43.718334 1879.024536,39.110291 1859.801147,35.556080 
	C1841.411133,32.155945 1822.896606,28.986414 1804.293091,27.323921 
	C1789.143555,25.970093 1773.755859,26.432777 1758.520996,27.125807 
	C1744.315308,27.772015 1730.034912,28.975695 1716.027344,31.350075 
	C1678.031006,37.790718 1642.236694,50.798744 1608.370605,69.220818 
	C1573.616089,88.126198 1542.046753,111.488335 1512.780029,137.933258 
	C1499.977417,149.501511 1487.799072,161.849197 1476.157715,174.592377 
	C1460.635498,191.583725 1445.241455,208.775681 1430.994507,226.830093 
	C1406.186157,258.268372 1384.874146,292.154938 1366.882202,327.889038 
	C1353.746704,353.977631 1342.079346,380.850952 1330.748413,407.791290 
	C1315.796021,443.342102 1304.787598,480.282074 1295.169556,517.587463 
	C1286.950684,549.465271 1280.244751,581.697754 1276.003052,614.374084 
	C1273.706787,632.064636 1270.945190,649.789001 1270.249268,667.570679 
	C1269.244263,693.257141 1269.710571,718.970581 1273.888550,744.539246 
	C1278.037354,769.929688 1285.004395,794.369141 1295.936523,817.610779 
	C1307.227295,841.614929 1321.914062,863.399475 1339.641846,883.187866 
	C1354.857910,900.172302 1370.785034,916.431091 1389.353271,929.700623 
	C1407.658569,942.782166 1426.016968,955.969727 1445.411011,967.297974 
	C1465.867554,979.246765 1487.120239,990.106323 1508.860962,999.509338 
	C1532.568970,1009.763306 1557.155151,1018.027222 1581.520020,1026.705444 
	C1593.542725,1030.987549 1605.824219,1034.646606 1618.170288,1037.897339 
	C1653.476562,1047.193604 1689.159058,1054.633789 1725.567993,1058.133911 
	C1743.042847,1059.813721 1760.523560,1061.430542 1778.057373,1063.396973 
	C1779.074585,1063.513306 1780.035889,1063.308350 1781.425293,1063.079590 
	C1783.970215,1063.369507 1786.090454,1063.974731 1788.203979,1063.952759 
	C1813.922241,1063.684692 1839.640503,1063.372803 1865.356445,1062.942383 
	C1869.969238,1062.865112 1874.583008,1062.296997 1879.177612,1061.786255 
	C1893.123413,1060.235352 1907.059937,1058.601562 1921.000000,1057.000000 
z"/>
<path fill="#BFCAE8" opacity="1.000000" stroke="none" 
	d="
M1921.000000,1056.531372 
	C1907.059937,1058.601562 1893.123413,1060.235352 1879.177612,1061.786255 
	C1874.583008,1062.296997 1869.969238,1062.865112 1865.356445,1062.942383 
	C1839.640503,1063.372803 1813.922241,1063.684692 1788.203979,1063.952759 
	C1786.090454,1063.974731 1783.970215,1063.369507 1781.051880,1063.042847 
	C1779.500977,1063.045166 1778.751343,1063.060547 1778.001709,1063.075806 
	C1760.523560,1061.430542 1743.042847,1059.813721 1725.567993,1058.133911 
	C1689.159058,1054.633789 1653.476562,1047.193604 1618.170288,1037.897339 
	C1605.824219,1034.646606 1593.542725,1030.987549 1581.520020,1026.705444 
	C1557.155151,1018.027222 1532.568970,1009.763306 1508.860962,999.509338 
	C1487.120239,990.106323 1465.867554,979.246765 1445.411011,967.297974 
	C1426.016968,955.969727 1407.658569,942.782166 1389.353271,929.700623 
	C1370.785034,916.431091 1354.857910,900.172302 1339.641846,883.187866 
	C1321.914062,863.399475 1307.227295,841.614929 1295.936523,817.610779 
	C1285.004395,794.369141 1278.037354,769.929688 1273.888550,744.539246 
	C1269.710571,718.970581 1269.244263,693.257141 1270.249268,667.570679 
	C1270.945190,649.789001 1273.706787,632.064636 1276.003052,614.374084 
	C1280.244751,581.697754 1286.950684,549.465271 1295.169556,517.587463 
	C1304.787598,480.282074 1315.796021,443.342102 1330.748413,407.791290 
	C1342.079346,380.850952 1353.746704,353.977631 1366.882202,327.889038 
	C1384.874146,292.154938 1406.186157,258.268372 1430.994507,226.830093 
	C1445.241455,208.775681 1460.635498,191.583725 1476.157715,174.592377 
	C1487.799072,161.849197 1499.977417,149.501511 1512.780029,137.933258 
	C1542.046753,111.488335 1573.616089,88.126198 1608.370605,69.220818 
	C1642.236694,50.798744 1678.031006,37.790718 1716.027344,31.350075 
	C1730.034912,28.975695 1744.315308,27.772015 1758.520996,27.125807 
	C1773.755859,26.432777 1789.143555,25.970093 1804.293091,27.323921 
	C1822.896606,28.986414 1841.411133,32.155945 1859.801147,35.556080 
	C1879.024536,39.110291 1898.052979,43.718334 1917.172729,47.837006 
	C1918.137817,48.044910 1919.161743,47.980724 1920.579102,48.021618 
	C1921.000000,384.020905 1921.000000,720.041809 1921.000000,1056.531372 
z"/>
<path fill="#EFF2FB" opacity="1.000000" stroke="none" 
	d="
M568.531372,1.000000 
	C572.518982,8.702699 575.981140,16.431969 579.567139,24.103333 
	C592.898743,52.622986 603.947693,82.044624 611.718811,112.506233 
	C617.437683,134.922913 621.593933,157.763702 625.738037,180.544373 
	C627.447327,189.940613 627.458984,199.666092 627.957031,209.256653 
	C628.482300,219.370407 629.135925,229.512573 628.905090,239.623413 
	C628.378723,262.673431 625.608704,285.468445 620.569214,308.022339 
	C614.365479,335.786682 604.320129,362.106049 591.261353,387.251892 
	C579.531982,409.837616 565.843506,431.271393 549.514832,450.842316 
	C539.104248,463.320007 528.208679,475.417084 517.108215,487.289917 
	C497.924652,507.808441 477.158844,526.747437 454.255402,542.939636 
	C432.051971,558.636963 408.971039,573.142761 385.827209,587.446472 
	C362.432922,601.904907 337.182648,612.806702 311.720306,623.026428 
	C276.071838,637.334473 239.415588,648.521729 201.705902,655.990356 
	C183.380508,659.619812 165.005722,663.163696 146.512360,665.731079 
	C130.796890,667.912842 114.902435,669.103760 99.045349,669.894958 
	C76.820374,671.003906 54.559944,671.527710 32.307953,671.913574 
	C22.192719,672.088989 12.061341,671.333313 1.468643,671.000000 
	C1.000000,447.745575 1.000000,224.491150 1.000000,1.000000 
	C190.020828,1.000000 379.041748,1.000000 568.531372,1.000000 
z"/>
<path fill="#F2F6FD" opacity="1.000000" stroke="none" 
	d="
M1778.057373,1063.396973 
	C1778.751343,1063.060547 1779.500977,1063.045166 1780.624023,1063.066650 
	C1780.035889,1063.308350 1779.074585,1063.513306 1778.057373,1063.396973 
z"/>
</svg>